<?xml version="1.0" encoding="UTF-8"?>
<svg xmlns="http://www.w3.org/2000/svg" xmlns:xlink="http://www.w3.org/1999/xlink" version="1.1" viewBox="0 0 370 640">
  <!-- Generator: Adobe Illustrator 29.0.0, SVG Export Plug-In . SVG Version: 2.1.0 Build 186)  -->
  <defs>
    <style>
      .st0 {
        fill: #414141;
      }

      .st1 {
        stroke-width: 1.2px;
      }

      .st1, .st2, .st3, .st4 {
        stroke: #414141;
        stroke-miterlimit: 10;
      }

      .st1, .st2, .st3, .st4, .st5, .st6 {
        fill: none;
      }

      .st7 {
        fill: #ffb0b0;
      }

      .st8 {
        fill: #fff;
      }

      .st9 {
        fill: #666;
      }

      .st10, .st5 {
        stroke-width: 3.87px;
      }

      .st10, .st5, .st6 {
        stroke: #414141;
        stroke-linecap: round;
        stroke-linejoin: round;
      }

      .st10, .st11 {
        fill: #ffd0a9;
      }

      .st12 {
        opacity: .2;
      }

      .st12, .st13, .st14, .st15 {
        fill: #414141;
      }

      .st13 {
        opacity: .4;
      }

      .st14 {
        opacity: .15;
      }

      .st2 {
        stroke-width: 5.99px;
      }

      .st3 {
        stroke-width: 5.16px;
      }

      .st4 {
        stroke-width: 9.42px;
      }

      .st16 {
        fill: url(#Degradado_sin_nombre_17);
      }

      .st6 {
        stroke-width: 6.45px;
      }

      .st17 {
        fill: #b55252;
      }
    </style>
    <linearGradient id="Degradado_sin_nombre_17" data-name="Degradado sin nombre 17" x1="185.81" y1="211.85" x2="185.81" y2="28" gradientUnits="userSpaceOnUse">
      <stop offset="0" stop-color="#f5f5f5"/>
      <stop offset="1" stop-color="#b2b2b2"/>
    </linearGradient>
  </defs>
  <g id="Layer_3">
    <g>
      <path class="st16" d="M9.26,162.82c-2.74,2.25-3.85,7.29-4.79,10.54-1.42,4.89,1.04,10.31,3.45,14.51,1.57,2.74,3.43,5.44,6.12,7.07,2.65,1.61,5.83,2.03,8.91,2.31,11.32,1.03,22.76.64,33.98-1.16,2.87-.46,6.21-1.42,7.11-4.18-.93,2.84,7.91,3.69,9.15,3.59,4.36-.36,8.76-1.1,13.1-1.74,9.69-1.42,19.48-3,29.3-2.15,15.53,1.34,29.81,8.59,44.39,14.09,31.37,11.83,65.69,15.76,98.92,11.35,14.67-1.95,30.1-6.05,39.94-17.11,2.76-3.1,5.71-7.03,9.86-6.87,2.15.08,4.05,1.3,6.01,2.19,6.52,2.96,14.02,2.33,21.14,1.57,8.45-.9,17.35-2.08,24.12-7.22,6.78-5.14,10.26-15.62,5.07-22.36-1.59-2.07-3.84-3.61-5.22-5.83-3.19-5.11,1.23-5.78,3.47-8.91.56-.78.61-1.82.63-2.78.08-3.8,1.13-7.68.74-11.44-.43-4.13-2.33-8.07-4.66-11.45-.95-1.38-2.03-2.75-3.53-3.49-5.15-2.53-14.95,1.61-17.37-6.1-5.41-17.25-13.68-33.12-23.04-48.56s-19.4-28.7-32.75-39.69c-1.33-1.1-2.69-2.16-4.07-3.2-22.75-16.97-52.62-24.03-80.56-19.06-4.8.85-9.58,2.05-14.46,2.11-5.33.07-10.58-1.22-15.84-2.05-23.56-3.74-48.22,1.76-68.74,13.91-20.53,12.14-36.98,30.68-47.97,51.84-3.68,7.09-8.09,13.76-11.37,21.13-3.48,7.84-6.31,15.97-8.41,24.28-.26,1.03-.57,2.15-1.43,2.78-.55.4-1.24.54-1.91.66-6.34,1.18-16.73.62-20.35,6.87-1.19,2.05-1.63,4.44-1.98,6.78-.39,2.57-.7,5.15-.93,7.74-.36,3.95-.27,8.55,2.8,11.07,2.21,1.82,3.41,2.83,5.05,5.35.17.27.36.58.27.89-.07.24-.29.41-.5.55-1.12.74-2.42,1.19-3.49,2.01-.06.05-.12.09-.18.14Z"/>
      <path class="st11" d="M303.45,228.29c2.43-11.46,3.94-23.75,1.45-35.23-1.01-4.64-4.2-9.09-4.46-13.84-.22-4.22.48-8.52-.39-12.66-.65-3.08-2.14-5.91-3.62-8.7-4.56-8.6-9.12-17.2-13.69-25.79-2.49-4.7-5-9.42-8.2-13.66-5.62-7.46-13.19-13.21-20.94-18.43-4.65-3.13-9.44-6.14-14.7-8.06-8.11-2.97-16.92-3.24-25.55-3.48-5.28-.15-10.71-.27-15.68,1.53-5.25,1.91-9.51,5.81-14.47,8.36-.81.42-1.7.81-2.61.69-.88-.12-1.62-.69-2.31-1.24-5.83-4.66-10.49-10.31-18.29-10.27-2.98.02-5.94.33-8.9.61-2.69.25-5.38.38-8.07.69-10.91,1.28-22.08,4.57-31.33,10.61-10.15,6.63-15.61,17.5-20.91,28.01-2.85,5.65-5.19,11.54-7.86,17.28-1.29,2.77-2.66,5.52-4.2,8.16-7.19,12.35-8.97,28.04-11.83,41.85-.72,3.48-1.44,6.97-1.71,10.51-.88,11.52.49,23.11,5.88,33.4,14.86,28.41,37.51,51.69,69.4,59.26,15.09,3.58,30.66,5,46.15,4.68,39.72-.82,82.89-16.4,106.47-49.97,5.14-7.32,8.54-15.62,10.38-24.32Z"/>
      <path class="st17" d="M224.57,237.62c-.7,5.54-3.68,10.8-7.87,14.45-7.14,6.22-18.6,10.65-30.53,10.89-12.23.46-24.25-3.54-31.83-9.61-3.64-2.9-6.25-6.28-7.39-9.91-.43-1.38-.75-2.77-.9-4.16-1.15-8.95,3.12-17.58,10.67-20.32,3.39-1.3,6.94-1.09,10.22.13.31.11.6.21.9.32,10.44,3.61,21.87,3.73,32.26-.06.87-.31,1.75-.64,2.62-1,8.62-3.61,17.71,2.02,20.84,10.22.16.44.32.89.45,1.34.75,2.54.9,5.16.56,7.7Z"/>
      <path class="st7" d="M150.37,249.54s32.68-17.66,69.02,0c0,0-30.66,30.28-69.02,0Z"/>
      <path class="st9" d="M334.25,374.26c-20.01-10.28-44.66-13.55-71.41-52.14-2.28-2.84-4.52-5.72-6.63-8.69-1.81-2.54-3.42-5.13-4.91-7.82-.55-.62-1.11-1.24-1.69-1.83-3.28-3.28-6.53-5.84-9.7-7.8-4.43.52-8.8,2.7-13.01,3.85-5.42,1.47-11.14,2.06-16.69,2.79-11.28,1.48-22.57,1.63-33.91.68-9.45-.8-18.7-2.25-28-4.08-7.57-1.49-16.8-3.53-23.1,2.2-6.59,6-9.97,14.78-15.1,21.92-5.82,8.1-12.47,15.91-19.97,22.51-7.16,6.31-15.44,11.62-24.83,13.82-.31.07-.56.02-.79-.08-11.11,5.71-21.1,9.08-29,14.67,0,0,1.92,12.6,1.36,30.65,2.95,5.59,5.87,11.2,8.71,16.85,11.47,22.85,21.72,46.37,29.2,70.78.32-.32.65-.64.97-.96,2.1-2.16,4.12-4.32,6.1-6.47-16.01,67.35-16,89.55-16,89.55l219.79,5.82s.02-.06.06-.15c.8-2.03,8.77-24.81-5.05-103.39,4.15,4.83,8.6,9.73,13.37,14.64.32.33.64.64.97.96,7.48-24.4,17.73-47.93,29.2-70.78,2.84-5.65,5.76-11.26,8.71-16.85-.56-18.04,1.36-30.65,1.36-30.65Z"/>
      <g>
        <path class="st11" d="M47.59,461.86c-6.93.43-13.29-.26-18.27-2-14.59-5.08-27.03-19.69-27.39-53.59l7.55-9.99,54.64-21.95,23.72,42.53c-19.28-5.66-22.02-15.93-20.08-24.64,1.36-6.1,6.9-1.07,12.66,1.38l13.22-2.6c5.24,2.22,8.7,10.36,10.78,17.41,2.19,7.41.7,15.21-2.99,22-7.38,13.57-20.29,22.47-33.75,27.27"/>
        <path class="st0" d="M47.59,461.86c-6.69,3.26-14.44,1.63-21.16-.84-10.39-3.94-17.96-13.2-21.75-23.39C.93,427.65-.18,416.8.06,406.29c0-.43.14-.83.38-1.15,0,0,7.55-9.99,7.55-9.99.21-.28.49-.49.8-.61l54.64-21.95c.89-.36,1.88.01,2.33.83l23.72,42.53c.87,1.41-.62,3.24-2.16,2.71-6.32-1.77-12.95-4.46-17.53-9.54-3.24-3.47-5.03-8.44-4.8-13.19.15-7.65,3.45-11.31,10.85-7.31,1.98,1,3.77,2.03,5.54,2.77,0,0-1.4-.15-1.4-.15l13.22-2.62c.49-.1.99-.04,1.42.15,7.34,3.53,10.3,12.81,12.42,20.03,3.82,15.78-6.79,30.91-18.74,40.08-4.48,3.45-9.52,6.28-14.69,8.54-1.7.79-3.54,1.39-5.91.26.96-2.16,2.41-3.05,4.33-3.82,1.22-.56,3.62-1.76,4.79-2.4,14.99-8.24,31.12-25.82,24.8-43.97-1.81-5.11-3.92-11.59-8.91-14.24,0,0,1.42.15,1.42.15,0,0-13.23,2.57-13.23,2.57-.49.1-.98.04-1.4-.15-3.19-1.23-5.91-3.59-9.01-4.13-.11.02.02-.02,0-.02-.31.36-.43.98-.58,1.65-1.62,6.75,1.55,13.05,7.46,16.74,3.3,2.16,7.09,3.77,11.01,5.01,0,0-2.16,2.71-2.16,2.71l-23.72-42.53,2.33.83-54.64,21.95s.8-.61.8-.61l-7.55,9.99.38-1.15c.36,6.8,1,13.57,2.47,20.11,2.7,12.77,9.37,25.47,21.8,30.75,6.14,2.97,13.1,2.4,19.52,4.75h0Z"/>
      </g>
      <g>
        <path class="st11" d="M322.57,461.86c6.93.43,13.29-.26,18.27-2,14.59-5.08,27.03-19.69,27.39-53.59l-7.55-9.99-54.64-21.95-23.72,42.53c19.28-5.66,22.02-15.93,20.08-24.64-1.36-6.1-7.1-2.66-12.86-.22l-13.03-1c-5.24,2.22-8.7,10.36-10.78,17.41-2.19,7.41-.7,15.21,2.99,22,7.38,13.57,20.29,22.47,33.75,27.27"/>
        <path class="st0" d="M322.57,461.86c6.41-2.35,13.38-1.78,19.52-4.75,19.32-8.48,23.38-31.81,24.27-50.85,0,0,.38,1.15.38,1.15,0,0-7.55-9.99-7.55-9.99,0,0,.8.61.8.61l-54.64-21.95s2.33-.83,2.33-.83l-23.72,42.53s-2.16-2.71-2.16-2.71c3.93-1.24,7.72-2.85,11.02-5.02,4.95-3.2,8.25-8.13,7.81-13.97-.15-1.48-.23-3.43-1.06-4.65-.3-.29-.46-.25-.97-.26-2.74.35-5.34,1.91-8.12,3.05-.37.16-.75.22-1.12.18,0,0-13.03-.97-13.03-.97l1.14-.19c-4.23,2.12-6.35,7.43-8.04,11.73-8.38,18.86,8,37.82,23.94,46.48,1.17.64,3.58,1.85,4.79,2.4,1.92.76,3.37,1.66,4.33,3.82-2.36,1.13-4.2.53-5.91-.26-5.17-2.26-10.21-5.09-14.69-8.54-11.95-9.16-22.56-24.3-18.74-40.08,2.12-7.22,5.09-16.51,12.42-20.03.37-.16.76-.22,1.14-.19,0,0,13.03,1.03,13.03,1.03,0,0-1.12.18-1.12.18,3.08-1.22,6.13-3.06,9.78-3.34,5.52-.32,6.7,5.21,6.8,9.43.24,4.75-1.54,9.73-4.78,13.21-4.58,5.1-11.22,7.79-17.55,9.56-1.56.54-3.03-1.33-2.16-2.71,0,0,23.72-42.53,23.72-42.53.46-.83,1.47-1.17,2.33-.83l54.64,21.95c.33.13.6.35.8.61,0,0,7.55,9.99,7.55,9.99.26.34.38.75.38,1.15.24,10.51-.87,21.36-4.62,31.34-3.8,10.19-11.37,19.46-21.75,23.39-6.71,2.47-14.47,4.09-21.16.84h0Z"/>
      </g>
      <path class="st0" d="M187.53,192.22c-.67-.1-1.33-.14-1.99-.15h0c-.18-.02-.37,0-.55,0-.18,0-.37,0-.55,0h0c-.65.05-1.31.11-1.98.24-6.11,1.58-9.04,8.6-8.77,14.13,2.09-3.04,3.96-5.96,6.26-7.88,1.65-1.24,3.38-1.8,5.14-1.93,1.76.06,3.51.55,5.22,1.72,2.38,1.82,4.37,4.66,6.58,7.61.04-5.54-3.17-12.44-9.35-13.76Z"/>
      <path class="st15" d="M86.74,425.37c-.65-.48,1.75-4.88,5.97-11.68,4.21-6.81,10.21-16.04,16.34-26.46,3.04-5.22,5.79-10.27,8.21-14.9,1.15-2.34,2.32-4.54,3.28-6.65.5-1.05.98-2.06,1.45-3.04.44-.98.86-1.93,1.27-2.83,3.23-7.22,5.02-11.85,5.85-11.64.72.17.33,5.25-2.01,13.07-.3.97-.62,1.99-.95,3.06-.38,1.05-.77,2.13-1.18,3.26-.8,2.26-1.83,4.6-2.88,7.08-2.21,4.9-4.9,10.17-8.02,15.52-6.27,10.68-12.91,19.67-18.01,25.91-5.11,6.24-8.68,9.77-9.31,9.3Z"/>
      <path class="st15" d="M282.87,425.37c-.63.47-4.2-3.06-9.31-9.3-5.1-6.24-11.73-15.24-18.01-25.91-3.12-5.35-5.81-10.62-8.02-15.52-1.05-2.48-2.09-4.82-2.88-7.08-.41-1.13-.8-2.21-1.18-3.26-.33-1.06-.65-2.08-.95-3.06-2.33-7.83-2.73-12.9-2.01-13.07.83-.21,2.62,4.43,5.85,11.64.4.9.83,1.85,1.27,2.83.47.97.95,1.99,1.45,3.04.96,2.11,2.13,4.31,3.28,6.65,2.41,4.64,5.16,9.68,8.21,14.9,6.13,10.42,12.13,19.65,16.34,26.46,4.22,6.8,6.62,11.2,5.97,11.68Z"/>
      <path class="st5" d="M224.57,237.62c-.7,5.54-3.68,10.8-7.87,14.45-7.14,6.22-18.6,10.65-30.53,10.89-12.23.46-24.25-3.54-31.83-9.61-3.64-2.9-6.25-6.28-7.39-9.91-.43-1.38-.75-2.77-.9-4.16-1.15-8.95,3.12-17.58,10.67-20.32,3.39-1.3,6.94-1.09,10.22.13.31.11.6.21.9.32,10.44,3.61,21.87,3.73,32.26-.06.87-.31,1.75-.64,2.62-1,8.62-3.61,17.71,2.02,20.84,10.22.16.44.32.89.45,1.34.75,2.54.9,5.16.56,7.7Z"/>
      <path class="st8" d="M131.24,295.68l-.67,7.23s7.4,8.24,8.75,9.25c1.35,1.01,7.23,5.72,9.08,6.9s6.9,4.21,6.9,4.21c0,0,0,1.18-.17,2.19s-.84,3.2-1.35,5.22-.5,2.19-2.19,4.88-.84,3.2-3.53,6.06c-2.69,2.86-4.71,4.88-7.57,8.58-2.86,3.7-4.37,4.04-5.22,6.56-.84,2.52-1.51,3.87,0,5.05,1.51,1.18,5.38,2.36,8.58,3.2,3.2.84,10.94,1.51,11.61,1.68s1.18-1.01,1.18.5-.34,3.53,0,5.38c.34,1.85-4.21.34,2.86,2.69,7.07,2.36,10.26,3.36,16.32,3.7s10.6,1.85,18.34.5c7.74-1.35,9.93-2.02,12.45-2.36,2.52-.34,6.06-1.01,6.22-2.36s0-3.36-.17-3.87-5.22-2.52-.84-2.69,10.26-1.51,12.45-2.36c2.19-.84,3.7-1.18,5.55-1.85s2.69-.67,3.36-2.02,2.19-1.51,1.18-3.7c-1.01-2.19-2.19-3.87-3.7-5.89-1.51-2.02-1.85-2.02-4.71-6.22-2.86-4.21-5.38-7.57-6.56-9.25-1.18-1.68-3.53-5.22-4.37-7.4s-2.52-4.71-2.36-5.72,1.01-2.36,5.38-4.54c4.37-2.19,5.89-3.87,7.91-5.38s5.38-3.03,7.74-4.54c2.36-1.51,2.86-2.02,3.53-3.2.67-1.18,1.01-2.52,1.51-4.21.5-1.68,2.36-6.06-1.51-6.22s-4.37,1.01-16.99,2.86c-12.62,1.85-12.45,3.03-28.26,2.02-15.81-1.01-13.12-.17-27.25-1.85s-17.5-2.52-23.55-2.69-6.73-.17-7.91-.17"/>
      <path class="st5" d="M218.1,249.54c-36.34-17.66-66.44,0-66.44,0"/>
      <path class="st6" d="M130.06,296.69c-3.36,1.01-6.39,4.04-14,17.4-26.95,47.32-58.34,47.2-76.69,60.17"/>
      <path class="st6" d="M241.64,296.69c3.36,1.01,6.39,4.04,14,17.4,26.95,47.32,58.34,47.2,76.69,60.17"/>
      <path class="st1" d="M211.73,8.31"/>
      <path class="st15" d="M321.18,162.62c.03-.48,2.6-.67,7.13-1.3,2.27-.32,5.03-.76,8.26-1.33,3.23-.56,6.92-1.26,11.11-1.81,2.06-.26,4.23-.58,6.68-.69,1.21-.06,2.51-.03,3.87.11,1.36.2,2.81.47,4.25,1.15,1.41.67,2.83,1.62,3.89,2.88.3.29.52.63.76.96.23.33.49.66.68,1.01.36.69.79,1.4,1.04,2.12l.42,1.08c.13.36.21.7.32,1.06.2.71.42,1.41.55,2.15.32,1.46.51,2.98.56,4.54.11,3.11-.38,6.37-1.6,9.47-1.21,3.1-3.16,6.04-5.76,8.35-.67.55-1.3,1.17-2.03,1.64-.71.5-1.43,1.01-2.21,1.41l-1.15.64-1.2.53c-.81.37-1.6.67-2.38.94-3.16,1.09-6.43,1.79-9.7,2.26-3.27.48-6.46.73-9.56.95-3.11.22-6.26.37-9.42.26-3.16-.11-6.32-.48-9.4-1.31-3.11-.83-6.03-2.19-8.56-3.95-5.11-3.51-8.55-8.54-10.35-13.56-.96-2.66-1.31-5.02-1.77-7.26-.41-2.22-.81-4.35-1.19-6.38-.77-4.03-1.57-7.62-2.42-10.72-.84-3.11-1.82-5.67-2.68-7.74-1.79-4.1-3.45-6.04-3.09-6.42.23-.3,2.67,1.12,5.35,5.19,1.29,2.03,2.7,4.64,3.92,7.79,1.25,3.15,2.4,6.81,3.48,10.86.54,2.02,1.07,4.15,1.61,6.33.56,2.17,1.08,4.46,1.89,6.36,1.69,4.05,4.59,7.89,8.64,10.49,2.01,1.31,4.29,2.29,6.73,2.89,2.48.61,5.19.89,7.99.95,2.81.06,5.73-.11,8.76-.35,3.04-.24,6.09-.5,9.08-.93,2.99-.44,5.86-1.05,8.53-1.95.68-.23,1.33-.47,1.91-.74l.9-.38.85-.46c.58-.28,1.1-.65,1.62-1,.55-.33.99-.77,1.48-1.16,3.79-3.27,5.62-8.15,5.59-12.87,0-1.18-.1-2.36-.31-3.52-.07-.58-.23-1.15-.37-1.72-.07-.28-.13-.58-.21-.84l-.26-.75c-.7-2.02-1.79-3.34-3.31-4.14-1.53-.81-3.59-1.07-5.67-1.1-2.08-.04-4.23.12-6.3.24-4.07.24-7.8.61-11.11.83-3.31.22-6.2.3-8.56.23-4.74-.15-7.3-.85-7.27-1.28Z"/>
      <path class="st15" d="M305.03,190.07c.1-.2.55-.24,1.29-.14.37.05.81.14,1.32.26.25.06.53.13.82.21.29.06.61.11.94.18.66.11,1.37.33,2.15.43.79.07,1.63.28,2.52.3,1.78.15,3.77,0,5.65-.65.96-.29,1.83-.85,2.69-1.45.82-.68,1.6-1.47,2.29-2.44.67-.98,1.27-2.11,1.75-3.35.43-1.11.66-2.32.69-3.6.05-2.54-.81-5.35-2.42-7.75-1.61-2.42-4.02-4.45-6.81-5.52-.69-.29-1.41-.46-2.13-.62-.69-.11-1.39-.22-2.1-.2-1.43-.02-2.86.25-4.14.71-1.3.45-2.39,1.16-3.18,1.93-.36.4-.71.8-.9,1.23-.14.2-.17.45-.28.66-.06.25-.13.5-.17.77-.33,2.22.41,4.84,1.67,6.53.63.86,1.37,1.51,2.18,1.95.21.1.41.2.62.29.22.06.43.12.65.2.51.14,1.12.24,1.6.31.5.07.93.09,1.29.07.37-.04.5-.04.7-.13.19-.08.35-.23.48-.39.17-.23.32-.62.43-.93.45-1.36.28-2.77-.12-3.8-.84-2.12-2.34-2.86-2.13-3.33.07-.2.53-.32,1.33-.11.78.21,1.99.78,3.01,2.11,1.01,1.3,1.86,3.35,1.55,5.86-.09.64-.21,1.24-.5,1.94-.33.77-.83,1.51-1.55,2.07-.69.57-1.67.94-2.45,1.11-.8.17-1.58.22-2.31.21-.75-.01-1.39-.04-2.15-.15-.42-.08-.83-.15-1.26-.23-.41-.12-.83-.27-1.25-.41-1.65-.66-3.16-1.76-4.37-3.14-1.21-1.38-2.14-3.02-2.75-4.82-.61-1.8-.93-3.78-.74-5.93.05-.54.16-1.09.28-1.64.18-.56.31-1.14.58-1.67.46-1.11,1.17-2.06,1.92-2.94,1.57-1.69,3.48-2.91,5.51-3.68,2.03-.79,4.2-1.22,6.43-1.23,1.12-.03,2.25.1,3.39.29,1.1.23,2.19.51,3.25.94,8.51,3.34,13.5,11.85,12.95,19.77-.14,1.98-.64,3.91-1.45,5.62-.75,1.59-1.67,3.06-2.75,4.39-1.1,1.32-2.4,2.43-3.76,3.31-1.41.81-2.87,1.46-4.31,1.73-.36.07-.71.15-1.06.22-.35.04-.7.06-1.04.08-.68.05-1.34.09-1.97.02-.63-.06-1.24-.06-1.81-.18-.56-.12-1.11-.24-1.64-.35-1.05-.23-1.94-.63-2.79-.92-.83-.32-1.53-.73-2.18-1.05-.32-.17-.62-.33-.9-.49-.26-.18-.51-.35-.74-.51-.45-.32-.82-.61-1.11-.86-.58-.51-.82-.86-.72-1.07Z"/>
      <path class="st15" d="M50.93,162.62c.03.43-2.53,1.13-7.27,1.28-2.36.07-5.25,0-8.56-.23-3.31-.21-7.05-.58-11.11-.83-2.07-.12-4.22-.28-6.3-.24-2.08.03-4.13.3-5.67,1.1-1.51.8-2.61,2.12-3.31,4.14l-.26.75c-.08.26-.14.56-.21.84-.14.57-.3,1.13-.37,1.72-.21,1.16-.31,2.34-.31,3.52-.03,4.72,1.79,9.6,5.59,12.87.49.38.93.83,1.48,1.16.52.36,1.04.72,1.62,1l.85.46.9.38c.58.27,1.23.51,1.91.74,2.67.9,5.54,1.51,8.53,1.95,2.99.44,6.04.7,9.08.93,3.03.23,5.95.4,8.76.35,2.8-.05,5.5-.33,7.99-.95,2.45-.6,4.73-1.58,6.73-2.89,4.05-2.6,6.95-6.44,8.64-10.49.81-1.89,1.33-4.19,1.89-6.36.55-2.18,1.07-4.31,1.61-6.33,1.08-4.05,2.24-7.71,3.48-10.86,1.23-3.15,2.63-5.76,3.92-7.79,2.68-4.07,5.12-5.49,5.35-5.19.36.38-1.3,2.32-3.09,6.42-.86,2.07-1.84,4.64-2.68,7.74-.86,3.1-1.66,6.69-2.42,10.72-.38,2.03-.77,4.16-1.19,6.38-.45,2.24-.81,4.6-1.77,7.26-1.8,5.02-5.25,10.05-10.35,13.56-2.53,1.77-5.45,3.12-8.56,3.95-3.07.83-6.24,1.2-9.4,1.31-3.16.11-6.31-.05-9.42-.26-3.1-.22-6.29-.47-9.56-.95-3.27-.48-6.54-1.17-9.7-2.26-.78-.27-1.57-.57-2.38-.94l-1.2-.53-1.15-.64c-.78-.4-1.5-.9-2.21-1.41-.73-.47-1.37-1.08-2.03-1.64-2.6-2.31-4.55-5.26-5.76-8.35-1.22-3.11-1.7-6.37-1.6-9.47.05-1.55.24-3.08.56-4.54.12-.74.35-1.45.55-2.15.11-.35.19-.7.32-1.06l.42-1.08c.25-.72.67-1.42,1.04-2.12.18-.35.45-.67.68-1.01.24-.33.46-.66.76-.96,1.06-1.27,2.48-2.21,3.89-2.88,1.44-.68,2.88-.95,4.25-1.15,1.36-.14,2.65-.17,3.87-.11,2.45.11,4.62.43,6.68.69,4.19.56,7.88,1.25,11.11,1.81,3.23.57,5.99,1.01,8.26,1.33,4.53.64,7.1.82,7.13,1.3Z"/>
      <path class="st15" d="M67.08,190.07c.1.2-.14.56-.72,1.07-.29.25-.66.54-1.11.86-.23.16-.48.33-.74.51-.28.15-.58.31-.9.49-.65.32-1.35.73-2.18,1.05-.85.29-1.74.69-2.79.92-.53.11-1.07.23-1.64.35-.57.11-1.19.12-1.81.18-.63.08-1.29.04-1.97-.02-.34-.03-.69-.04-1.04-.08-.35-.07-.7-.15-1.06-.22-1.45-.27-2.9-.92-4.31-1.73-1.37-.89-2.66-2-3.76-3.31-1.08-1.33-2-2.8-2.75-4.39-.81-1.72-1.3-3.64-1.45-5.62-.55-7.92,4.44-16.43,12.95-19.77,1.05-.42,2.15-.7,3.25-.94,1.14-.19,2.28-.32,3.39-.29,2.24,0,4.4.45,6.43,1.23,2.03.78,3.94,2,5.51,3.68.75.88,1.46,1.83,1.92,2.94.27.53.4,1.11.58,1.67.12.55.23,1.11.28,1.64.19,2.15-.13,4.12-.74,5.93-.62,1.8-1.54,3.43-2.75,4.82-1.2,1.38-2.72,2.49-4.37,3.14-.42.15-.83.29-1.25.41-.42.08-.84.15-1.26.23-.76.11-1.4.13-2.15.15-.73,0-1.5-.04-2.31-.21-.78-.17-1.76-.54-2.45-1.11-.72-.55-1.23-1.3-1.55-2.07-.29-.71-.41-1.31-.5-1.94-.31-2.51.53-4.57,1.55-5.86,1.02-1.33,2.23-1.9,3.01-2.11.81-.21,1.26-.09,1.33.11.21.47-1.29,1.22-2.13,3.33-.4,1.03-.58,2.44-.12,3.8.11.32.27.7.43.93.13.17.29.31.48.39.21.09.33.09.7.13.35.02.79,0,1.29-.07.48-.07,1.09-.17,1.6-.31.21-.07.43-.14.65-.2.2-.1.41-.19.62-.29.81-.44,1.55-1.09,2.18-1.95,1.26-1.68,2-4.31,1.67-6.53-.04-.27-.12-.52-.17-.77-.11-.21-.14-.46-.28-.66-.19-.43-.54-.83-.9-1.23-.8-.77-1.89-1.48-3.18-1.93-1.28-.46-2.72-.73-4.14-.71-.72-.02-1.41.09-2.1.2-.71.17-1.44.34-2.13.62-2.79,1.08-5.2,3.1-6.81,5.52-1.61,2.4-2.47,5.21-2.42,7.75.03,1.27.26,2.49.69,3.6.48,1.24,1.09,2.37,1.75,3.35.69.97,1.47,1.76,2.29,2.44.86.6,1.73,1.16,2.69,1.45,1.89.65,3.87.8,5.65.65.89-.02,1.73-.22,2.52-.3.79-.11,1.49-.32,2.15-.43.33-.06.64-.12.94-.18.29-.07.56-.14.82-.21.51-.12.95-.21,1.32-.26.74-.1,1.19-.07,1.29.14Z"/>
      <path class="st1" d="M158.5,8.31"/>
      <path class="st2" d="M30.14,122.14C79.33-28.7,184.73,9.24,184.73,9.24l.38.14c.19-.07.38-.14.38-.14,0,0,105.4-37.94,154.58,112.89"/>
      <path class="st15" d="M52.5,116.34c-.43-.25.41-2.49,2.3-6.33.47-.96,1.01-2.02,1.61-3.18.6-1.16,1.25-2.41,2.05-3.71,1.55-2.61,3.33-5.58,5.38-8.82,4.29-6.34,9.51-13.89,16.36-21.48,6.78-7.62,15-15.5,24.98-22.14.62-.42,1.24-.84,1.85-1.25.64-.38,1.29-.75,1.92-1.13,1.28-.74,2.56-1.48,3.82-2.21,1.3-.68,2.62-1.29,3.92-1.93.65-.31,1.3-.63,1.95-.94.65-.29,1.33-.54,1.99-.8,1.33-.52,2.65-1.03,3.95-1.54,1.34-.41,2.67-.81,3.99-1.21,1.3-.44,2.65-.7,3.96-.98,1.32-.26,2.61-.62,3.92-.76,10.44-1.65,20.12-.49,27.63,1.93,1.9.56,3.64,1.27,5.29,1.92,1.62.74,3.14,1.4,4.51,2.17,2.76,1.45,4.98,2.95,6.71,4.29,3.46,2.66,4.93,4.67,4.6,5.03-.34.38-2.34-.83-6.08-2.66-1.87-.91-4.16-1.98-6.9-3.01-1.35-.55-2.85-1-4.41-1.53-1.59-.44-3.25-.95-5.04-1.31-7.08-1.62-15.82-2.14-25.17-.32-1.18.16-2.34.53-3.52.81-1.18.3-2.39.56-3.56,1-1.19.39-2.38.79-3.59,1.18-1.18.49-2.37.98-3.58,1.48-.6.25-1.21.48-1.81.76-.59.3-1.18.59-1.78.89-1.18.6-2.4,1.17-3.59,1.81-1.17.69-2.34,1.38-3.53,2.08-.59.35-1.19.7-1.78,1.05-.57.39-1.15.78-1.73,1.18-9.31,6.19-17.27,13.53-24.07,20.63-6.87,7.06-12.37,14.11-17.1,19.94-2.27,3-4.31,5.72-6.16,8.09-.94,1.17-1.75,2.3-2.51,3.34-.76,1.03-1.47,1.97-2.12,2.81-2.6,3.36-4.24,5.1-4.67,4.85Z"/>
      <path class="st15" d="M318.33,116.34c-.43.25-2.07-1.49-4.67-4.85-.65-.84-1.36-1.78-2.12-2.81-.76-1.04-1.58-2.17-2.51-3.34-1.85-2.36-3.89-5.09-6.16-8.09-4.73-5.84-10.23-12.88-17.1-19.94-6.79-7.1-14.76-14.44-24.07-20.63-.58-.39-1.15-.79-1.73-1.18-.6-.35-1.19-.7-1.78-1.05-1.18-.7-2.36-1.39-3.53-2.08-1.19-.64-2.4-1.2-3.59-1.81-.59-.3-1.19-.59-1.78-.89-.6-.28-1.21-.51-1.81-.76-1.2-.5-2.4-.99-3.58-1.48-1.21-.4-2.41-.79-3.59-1.18-1.18-.44-2.38-.7-3.56-1-1.19-.27-2.34-.65-3.52-.81-9.35-1.83-18.09-1.3-25.17.32-1.79.36-3.45.87-5.04,1.31-1.56.53-3.05.98-4.41,1.53-2.74,1.02-5.04,2.09-6.9,3.01-3.74,1.82-5.74,3.04-6.08,2.66-.33-.35,1.14-2.36,4.6-5.03,1.73-1.33,3.95-2.83,6.71-4.29,1.36-.77,2.89-1.43,4.51-2.17,1.65-.65,3.39-1.36,5.29-1.92,7.5-2.42,17.19-3.58,27.63-1.93,1.32.13,2.6.49,3.92.76,1.32.29,2.66.55,3.96.98,1.32.4,2.65.8,3.99,1.21,1.3.51,2.62,1.02,3.95,1.54.66.27,1.34.51,1.99.8.65.31,1.29.62,1.95.94,1.3.64,2.62,1.25,3.92,1.93,1.27.73,2.54,1.47,3.82,2.21.64.38,1.28.75,1.92,1.13.62.42,1.23.83,1.85,1.25,9.98,6.64,18.2,14.52,24.98,22.14,6.86,7.59,12.07,15.13,16.36,21.48,2.05,3.24,3.82,6.21,5.38,8.82.79,1.3,1.45,2.55,2.05,3.71.6,1.16,1.14,2.22,1.61,3.18,1.89,3.84,2.72,6.08,2.3,6.33Z"/>
      <path class="st15" d="M67.68,136.15c.04-.06.22.02.56.01.32-.01.87-.16,1.18-.66.32-.49.36-1.39-.18-2.12-.52-.74-1.63-1.23-2.66-.75-.52.23-.9.62-1.15,1.25-.26.63-.4,1.39-.35,2.15.06.8.23,1.43.61,2.06.37.62,1.14.99,1.9.86,1.31-.15,3.32-1.61,4.53-3.34,1.18-1.62,1.42-4.14.51-6.25-.44-1.04-1.21-2.04-2.11-2.56-.87-.51-2.08-.63-3.45-.46-2.74.3-5.33,1.64-7.32,3.95-2.01,2.27-3.42,5.33-4.19,8.65-.74,3.32-.87,6.99.03,10.41.22.86.52,1.68.89,2.46.09.18.19.41.28.55.08.14.16.28.27.4.19.26.43.5.71.72,1.09.88,2.8,1.37,4.46,1.3,3.46-.11,7.01-2.18,9.39-5.29,2.42-3.08,3.68-7.25,4.11-11.64.19-2.19.28-4.58.05-6.66-.12-1.04-.35-2.01-.71-2.85-.36-.83-.88-1.54-1.53-2.16-1.3-1.22-3.29-1.95-5.51-2.33-2.23-.38-4.66-.39-7.2-.32-5.21.14-10.53.29-15.97.44-5.43.14-10.98.29-16.62.44-2.84.09-5.66.09-8.22.43-2.57.35-4.88,1.07-6.6,2.47-1.74,1.39-3.06,3.42-3.83,5.86-.8,2.42-1.12,5.14-1.1,7.91.03,2.77.33,5.65,1.13,8.06.4,1.22.94,2.31,1.63,3.22.69.91,1.51,1.65,2.55,2.25,2.06,1.22,4.82,1.85,7.8,2.25,3.03.4,6.18.72,9.3.94,6.28.44,12.66.55,19.11.25,6.46-.34,13.02-.72,18.55-2.94,2.76-1.1,5.14-2.67,6.99-4.84,1.89-2.15,3.33-4.89,4.55-7.9,1.23-3.01,2.26-6.29,3.52-9.67.62-1.69,1.42-3.38,2.14-5.07.34-.86.79-1.66,1.22-2.48l1.3-2.45c3.63-6.45,8.29-12.37,13.75-17.53,10.89-10.32,25.08-17.65,40.52-20.01,1.93-.25,3.86-.59,5.83-.64,1.96-.11,3.92-.26,5.89-.19,3.94.07,7.96.49,11.94,1.51,4.01,1.05,7.67,2.57,11.25,4.37,1.79.91,3.54,1.91,5.26,3.04.43.28.86.57,1.28.88l.64.46.55.42s0,0,0,0h0s0,0,0,0l.32-.25c.21-.17.42-.33.64-.48.43-.31.85-.62,1.29-.91.86-.58,1.74-1.13,2.62-1.64,1.77-1.03,3.57-1.94,5.4-2.78,1.83-.83,3.7-1.58,5.63-2.23,1.93-.65,3.97-1.18,5.97-1.55,4.02-.74,8.04-.97,11.98-.85l2.96.17c.98.06,1.97.08,2.94.25l2.92.4,1.46.2,1.44.3c15.39,3.06,29.32,10.97,39.85,21.77,5.27,5.41,9.71,11.56,13.05,18.22,1.64,3.32,3.09,6.83,4.21,10.16,1.17,3.32,2.24,6.52,3.64,9.34,1.4,2.82,3.09,5.28,5.29,7.05,2.19,1.8,4.92,3.04,7.87,3.87,2.96.83,6.12,1.26,9.35,1.55,3.25.27,6.53.46,9.77.53,6.49.16,12.91-.08,19.21-.67,3.14-.32,6.36-.62,9.1-1.24,2.77-.63,5.1-1.69,6.56-3.37,1.5-1.69,2.38-4.2,2.8-6.92.42-2.75.5-5.66.2-8.35-.29-2.71-1.01-5.29-2.24-7.36-1.23-2.09-2.95-3.56-5.16-4.4-2.21-.87-4.88-1.14-7.65-1.26-2.88-.08-5.73-.16-8.56-.24-5.68-.15-11.26-.3-16.72-.45-2.73-.07-5.44-.15-8.12-.22-1.34-.04-2.67-.07-3.99-.11-1.28-.04-2.54-.04-3.76.02-2.42.11-4.76.46-6.6,1.31-1.84.85-3.1,2.13-3.73,3.9-.65,1.8-.72,4.08-.64,6.41.07,2.31.33,4.56.83,6.69.5,2.12,1.26,4.12,2.29,5.88,1.02,1.74,2.38,3.26,3.92,4.44,3.04,2.37,7.13,3.25,10.03,1.82.7-.34,1.28-.79,1.67-1.32.11-.13.19-.27.27-.41.09-.16.19-.39.29-.58.19-.4.36-.82.51-1.24.6-1.7.89-3.53.97-5.35.13-3.65-.59-7.26-1.96-10.36-1.37-3.1-3.47-5.69-6.06-7.11-1.3-.71-2.66-1.1-4.12-1.27-1.43-.16-2.65,0-3.51.6-.91.63-1.67,1.75-2.02,2.84-.35,1.12-.34,2.33-.03,3.45.31,1.12.89,2.16,1.65,2.91.8.79,1.79,1.45,2.79,1.92.5.24,1.01.43,1.5.55.51.13.86.18,1.27.18.39-.01.79-.09,1.12-.3.33-.2.58-.52.73-.86.16-.34.22-.72.24-1.09.02-.17.01-.39,0-.62,0-.23-.02-.42-.05-.63-.13-.84-.43-1.68-.82-2.36-.38-.69-.89-1.24-1.4-1.46-.51-.24-1.16-.21-1.72-.03-1.15.41-1.95,1.34-2.08,2.28-.16.96.35,1.74.84,2.17.51.44,1.03.6,1.37.66.35.06.54.04.53.09,0,.05-.2.17-.63.21-.42.03-1.1-.05-1.81-.55-.69-.47-1.46-1.43-1.38-2.76.05-1.3,1.04-2.76,2.63-3.46.8-.33,1.82-.51,2.85-.14,1.03.39,1.77,1.18,2.33,2.03.56.87.97,1.83,1.22,2.94.06.27.11.59.12.86.03.28.05.57.03.92-.02.66-.11,1.35-.38,1.99-.26.64-.68,1.23-1.27,1.65-.58.42-1.31.66-2.06.74-.74.09-1.58,0-2.24-.15-.67-.14-1.33-.36-1.96-.62-1.27-.54-2.48-1.26-3.61-2.28-1.16-1.07-2.01-2.45-2.51-4.01-.5-1.56-.6-3.35-.13-5.07.24-.86.62-1.69,1.11-2.46.49-.76,1.11-1.48,1.92-2.08.81-.61,1.82-1.02,2.78-1.2.98-.19,1.93-.2,2.84-.13,1.78.14,3.7.62,5.42,1.5,3.48,1.78,6.13,4.98,7.84,8.57,1.71,3.62,2.63,7.72,2.6,12.03-.05,2.16-.33,4.37-1.05,6.58-.18.55-.39,1.1-.63,1.64-.13.28-.23.53-.39.83-.17.31-.35.62-.57.91-.83,1.17-1.96,2.06-3.16,2.67-1.2.62-2.48.98-3.78,1.15-1.31.17-2.63.11-3.89-.11-2.54-.44-4.96-1.51-7.02-3.04-2.07-1.52-3.85-3.44-5.22-5.68-1.36-2.21-2.32-4.65-2.96-7.15-.64-2.5-.97-5.07-1.09-7.64-.1-2.52-.18-5.31.8-8.28.49-1.48,1.34-2.94,2.45-4.13,1.11-1.21,2.46-2.14,3.86-2.81,2.83-1.34,5.73-1.73,8.52-1.92,1.4-.09,2.78-.1,4.15-.08,1.33.02,2.66.03,4,.05,2.68.04,5.38.07,8.12.11,5.47.08,11.05.15,16.73.23,2.86.05,5.74.09,8.65.14,2.99.11,6.24.31,9.56,1.54,1.65.6,3.27,1.53,4.69,2.7,1.43,1.17,2.6,2.61,3.53,4.14,1.86,3.08,2.77,6.46,3.16,9.78.39,3.35.33,6.63-.14,10-.25,1.69-.63,3.43-1.29,5.16-.65,1.73-1.6,3.45-2.9,4.98-1.32,1.52-2.97,2.75-4.68,3.61-1.71.87-3.47,1.44-5.18,1.84-1.72.41-3.4.67-5.04.88-1.62.21-3.25.4-4.89.57-6.55.67-13.22.96-19.98.84-3.38-.05-6.76-.22-10.2-.49-3.45-.29-7-.73-10.59-1.71-3.57-.98-7.22-2.55-10.36-5.09-3.18-2.53-5.46-5.92-7.14-9.28-1.69-3.39-2.84-6.82-4.02-10.1-1.13-3.31-2.41-6.31-3.9-9.32-3.03-5.98-7.06-11.54-11.87-16.43-9.6-9.78-22.34-16.96-36.19-19.68l-1.29-.27-1.31-.18-2.63-.36c-.87-.15-1.76-.16-2.64-.22l-2.65-.15c-3.55-.12-7.09.11-10.49.74-1.71.32-3.35.74-5,1.3-1.66.56-3.32,1.23-4.95,1.96-1.63.74-3.22,1.55-4.75,2.44-.77.44-1.51.91-2.22,1.39-.37.24-.71.49-1.05.74-.18.12-.35.25-.51.38l-.25.19c-.19.16-.39.3-.57.46-1.3,1.18-2.58,2.41-3.83,3.61-1.41-1.3-2.82-2.7-4.3-3.93l-.58-.45-.52-.37c-.34-.25-.7-.49-1.06-.73-1.44-.95-2.98-1.83-4.56-2.64-3.16-1.6-6.51-2.98-9.77-3.82-3.31-.85-6.78-1.23-10.29-1.3-1.76-.07-3.52.08-5.27.17-1.76.03-3.49.35-5.23.57-13.88,2.09-26.85,8.72-36.78,18.07-4.98,4.67-9.22,10.03-12.52,15.83l-1.18,2.2c-.39.73-.81,1.46-1.11,2.23-.64,1.53-1.37,3-1.95,4.57-1.19,3.14-2.25,6.48-3.64,9.85-1.38,3.35-3.14,6.8-5.78,9.78-1.3,1.48-2.82,2.83-4.46,3.93-1.64,1.1-3.38,1.97-5.13,2.67-3.52,1.39-7.11,2.11-10.58,2.54-3.49.43-6.84.61-10.2.75-6.71.26-13.35.1-19.88-.41-3.27-.26-6.47-.61-9.71-1.06-3.26-.49-6.8-1.18-10.13-3.16-1.65-.97-3.19-2.36-4.35-3.93-1.16-1.58-1.96-3.31-2.5-5.01-.55-1.71-.87-3.41-1.07-5.07-.19-1.66-.28-3.27-.28-4.92.01-3.28.41-6.6,1.5-9.83,1.05-3.22,3.01-6.41,5.9-8.63,1.42-1.13,3.06-1.93,4.68-2.5,1.63-.55,3.25-.87,4.82-1.07,3.15-.37,6.05-.32,8.85-.38,5.65-.08,11.19-.16,16.63-.23,5.43-.07,10.76-.14,15.97-.21,2.66-.03,5.41,0,8.21.52,2.76.52,5.74,1.51,8.09,3.75,1.14,1.11,2.07,2.46,2.66,3.9.58,1.43.87,2.88,1.01,4.25.24,2.76.08,5.19-.18,7.71-.58,4.97-2.11,10-5.34,13.97-1.59,1.96-3.52,3.61-5.71,4.8-2.18,1.21-4.66,1.9-7.16,1.94-2.54,0-5.09-.67-7.18-2.39-.52-.43-.99-.93-1.39-1.49-.21-.28-.38-.57-.55-.88-.16-.3-.25-.53-.38-.8-.46-1.05-.83-2.11-1.07-3.18-1-4.27-.71-8.45.24-12.26.99-3.8,2.7-7.33,5.27-10.07,1.27-1.37,2.77-2.53,4.42-3.33,1.63-.82,3.44-1.26,5.12-1.41,1.68-.15,3.64-.01,5.3,1.04,1.6,1.05,2.55,2.52,3.15,4.03,1.15,3.05.7,6.42-1.11,8.75-.86,1.11-1.83,1.98-2.9,2.69-.55.36-1.07.65-1.74.93-.67.26-1.37.44-2.05.46-.68.02-1.35-.11-1.92-.42-.57-.31-1.02-.78-1.35-1.31-.63-1.05-.86-2.35-.85-3.34.01-1.05.25-2.01.67-2.87.41-.88,1.23-1.64,2.1-1.91.86-.3,1.78-.25,2.51.08.73.32,1.26.85,1.59,1.43.68,1.17.46,2.47-.15,3.15-.65.7-1.42.7-1.81.58-.42-.13-.54-.34-.51-.38Z"/>
      <polygon class="st8" points="185.6 625.41 322.04 625.42 344.7 391.24 185.6 391.24 184.54 391.24 25.44 391.24 48.1 625.42 184.54 625.41 185.6 625.41"/>
      <polygon class="st4" points="185.6 625.41 322.04 625.42 344.7 391.24 185.6 391.24 184.54 391.24 25.44 391.24 48.1 625.42 184.54 625.41 185.6 625.41"/>
      <path class="st15" d="M183.24,299.79c.53.09.78,1.32,1.22,3.4.22,1.06.48,2.36.78,3.86.28,1.54.62,3.33.73,5.49.09,2.13,0,4.79-1.26,7.53-.6,1.35-1.49,2.7-2.63,3.83-1.12,1.14-2.45,2.08-3.88,2.82-2.84,1.49-6.2,2.18-9.49,2.13-3.3-.03-6.56-.74-9.65-1.8-6.21-2.15-11.28-5.5-15.55-8.55-4.23-3.11-7.9-6.04-10.96-8.59-.79-.68-1.61-1.42-2.32-2.34-.68-.85-1.41-2.15-1.49-3.37-.09-1.29.18-2.18.48-2.99.32-.8.76-1.48,1.23-2.01.99-1.08,2.14-1.48,2.86-1.47.73-.01,1.08.23,1.12.47.09.55-1.1,1.08-1.55,2.61-.11.39-.2.83-.22,1.32-.02.48.04,1.05.18,1.31.17.33.38.49.88.93.48.39,1.14.8,1.93,1.28,3.37,1.94,7.33,4.4,11.66,7.12,4.35,2.66,9.03,5.45,14.16,7.22,5.12,1.8,10.08,2.14,13.73.54.91-.38,1.71-.86,2.37-1.41.66-.53,1.18-1.16,1.61-1.87.88-1.37,1.28-3.11,1.5-4.87.22-1.76.27-3.51.38-5.08.1-1.57.24-2.98.48-4.12.46-2.31,1.21-3.48,1.69-3.39Z"/>
      <path class="st15" d="M186.66,299.26c.48-.09,1.23,1.08,1.69,3.39.24,1.15.38,2.55.48,4.12.11,1.57.16,3.32.38,5.08.22,1.76.62,3.5,1.5,4.87.43.7.95,1.33,1.61,1.87.66.55,1.46,1.03,2.37,1.41,3.64,1.61,8.61,1.26,13.73-.54,6.2-2.15,11.78-5.75,16.84-8.9,2.52-1.59,4.88-3.04,7.06-4.32,1.08-.64,2.18-1.26,2.95-1.76.4-.26.74-.5,1.01-.73.14-.12.26-.23.37-.34.08-.08.16-.14.23-.23.09-.11.17-.23.21-.36.05-.14.1-.23.12-.45.05-.38.05-.79,0-1.15-.07-.75-.3-1.33-.55-1.78-.51-.94-1.27-1.33-1.19-1.77.03-.2.25-.36.71-.45.45-.06,1.17-.02,1.98.44.81.44,1.67,1.27,2.25,2.43.3.58.54,1.24.68,2,.07.35.12.85.1,1.32,0,.48-.1.96-.26,1.44-.14.36-.3.74-.5,1.08-.18.31-.37.62-.58.9-.42.57-.89,1.08-1.36,1.54-.97.94-1.88,1.65-2.88,2.47-1.98,1.61-4.2,3.36-6.61,5.2-2.4,1.84-5.06,3.74-8.05,5.59-2.99,1.84-6.34,3.6-10.1,4.89-3.09,1.06-6.35,1.77-9.65,1.8-3.29.05-6.65-.64-9.49-2.13-1.43-.74-2.75-1.68-3.88-2.82-1.14-1.14-2.03-2.48-2.63-3.83-1.27-2.75-1.36-5.4-1.26-7.53.11-2.16.45-3.95.73-5.49.3-1.5.56-2.79.78-3.86.44-2.08.69-3.31,1.22-3.4Z"/>
      <path class="st3" d="M155.92,325.47c-3.37,9.86-8.62,19.07-15.39,26.98-1.92,2.25-8.1,5.87-5.08,9.2,2.81,3.1,9.16,3.74,13,4.36,4,.65,8.09,1.13,12.15,1.22,1.67.04,3.43,0,4.89-.81,2.03-1.12,3.04-3.42,3.86-5.58,4.31-11.35,15.28-32.9,16.28-45.01"/>
      <path class="st3" d="M213.59,323.61c3.37,9.86,9.41,20.93,16.18,28.85,1.92,2.25,8.1,5.87,5.08,9.2-2.81,3.1-9.16,3.74-13,4.36-4,.65-8.09,1.13-12.15,1.22-1.67.04-3.43,0-4.89-.81-2.03-1.12-3.04-3.42-3.86-5.58-4.31-11.35-15.28-32.9-16.28-45.01"/>
      <path class="st3" d="M158.67,365.06c-.18,5.76-1.6,4.82-1.82,9.1-.03.49-.02.99.31,1.45.54.76,1.84,1.22,3.11,1.56,6.87,1.85,14.76,1.61,22.3,1.33h4.81c7.54.28,15.43.52,22.3-1.33,1.27-.34,2.57-.8,3.11-1.56.32-.45.33-.96.31-1.45-.22-4.28-1.64-3.34-1.82-9.1"/>
      <circle class="st8" cx="140.09" cy="184.11" r="3.44"/>
      <path class="st15" d="M120.15,133.92c-.32-.27-.18-1.03.38-2.19.14-.29.3-.61.5-.95.21-.32.45-.67.71-1.04s.56-.76.87-1.17c.34-.39.71-.79,1.11-1.21,1.6-1.65,3.79-3.49,6.73-4.84,2.91-1.34,6.59-2.16,10.36-1.82,3.78.32,7.12,1.63,9.82,3.16,2.69,1.57,4.8,3.35,6.36,5.01,3.14,3.32,4.23,6.02,3.58,6.53-.66.54-2.83-1.03-6.32-3.2-3.46-2.13-8.38-4.95-13.95-5.42-2.77-.24-5.39.18-7.74.95-2.35.77-4.39,1.93-6.12,2.97-3.43,2.13-5.62,3.79-6.3,3.21Z"/>
      <ellipse class="st15" cx="133.69" cy="169.95" rx="30.71" ry="26.46" transform="translate(-65 255.24) rotate(-75.04)"/>
      <ellipse class="st8" cx="135.71" cy="175.83" rx="30.19" ry="24.73" transform="translate(-74.86 246.52) rotate(-70.89)"/>
      <ellipse class="st15" cx="138.21" cy="179.09" rx="25.05" ry="21.86" transform="translate(-85.99 209.24) rotate(-60)"/>
      <path class="st8" d="M161.68,175.1c0,3.93-3.18,7.11-7.11,7.11-3.93,0-7.11-3.18-7.11-7.11s3.18-7.11,7.11-7.11,7.11,3.18,7.11,7.11Z"/>
      <circle class="st8" cx="141.82" cy="180.27" r="3.4"/>
      <path class="st15" d="M250.12,133.92c-.68.59-2.87-1.07-6.3-3.21-1.72-1.04-3.76-2.2-6.12-2.97-2.35-.77-4.96-1.19-7.74-.95-5.57.47-10.5,3.29-13.95,5.42-3.49,2.17-5.66,3.74-6.32,3.2-.65-.51.44-3.21,3.58-6.53,1.56-1.66,3.68-3.44,6.36-5.01,2.7-1.53,6.04-2.85,9.82-3.16,3.77-.34,7.45.48,10.36,1.82,2.94,1.35,5.12,3.18,6.73,4.84.4.42.77.82,1.11,1.21.32.41.61.8.87,1.17.26.37.5.72.71,1.04.2.34.36.66.5.95.56,1.16.7,1.92.38,2.19Z"/>
      <ellipse class="st15" cx="236.58" cy="169.95" rx="26.46" ry="30.71" transform="translate(-35.85 66.82) rotate(-14.96)"/>
      <ellipse class="st8" cx="234.57" cy="175.83" rx="24.73" ry="30.19" transform="translate(-44.63 86.46) rotate(-19.11)"/>
      <ellipse class="st15" cx="232.06" cy="179.09" rx="21.86" ry="25.05" transform="translate(-58.45 140.02) rotate(-30)"/>
      <circle class="st8" cx="215.7" cy="175.1" r="7.11"/>
      <circle class="st8" cx="228.46" cy="180.27" r="3.4"/>
      <path class="st15" d="M297.52,175.26c.21.54.77,1.19,1.22.82.13-.11.2-.28.25-.44,1.62-4.56,4.74-8.58,8.76-11.28-.48-.76-1.34-1.18-2.16-1.56-2.63-1.23-10.2-6.74-11.65-2.02-1.17,3.8,2.38,10.9,3.57,14.49Z"/>
      <path class="st15" d="M73.28,173.31c-.21.54-.77,1.19-1.22.82-.13-.11-.2-.28-.25-.44-1.62-4.56-4.74-8.58-8.76-11.28.48-.76,1.34-1.18,2.16-1.56,2.63-1.23,10.2-6.74,11.65-2.02,1.17,3.8-2.38,10.9-3.57,14.49Z"/>
      <path class="st6" d="M64.31,193.26s-7.63,110.93,120.8,108.46"/>
      <path class="st6" d="M306.6,192.15s7.04,113.22-121.48,109.57"/>
      <g>
        <path class="st10" d="M32.57,379.95s12.91-36.92,34.3-19.1c3.68,3.07,6.54,6.99,8.62,11.3,3.85,7.99,8.98,22.56-.5,29.41,0,0-19.67,14.5-33.33-25.56"/>
        <path class="st10" d="M16.64,392.41s12.91-36.92,34.3-19.1c3.68,3.07,6.54,6.99,8.62,11.3,3.85,7.99,8.98,22.56-.5,29.41,0,0-19.67,14.5-33.33-25.56"/>
        <path class="st10" d="M11.54,401.89"/>
        <path class="st10" d="M11.27,401.11c13.66,40.06,33.33,25.56,33.33,25.56,9.43-6.81,4.41-21.25.56-29.27-2.09-4.36-4.96-8.33-8.67-11.43-18.05-15.04-30.28,8.67-33.67,16.46-.64,1.47-.93,3.06-.88,4.65l.14,4.09"/>
      </g>
      <g>
        <path class="st10" d="M337.59,379.95s-12.91-36.92-34.3-19.1c-3.68,3.07-6.54,6.99-8.62,11.3-3.85,7.99-8.98,22.56.5,29.41,0,0,19.67,14.5,33.33-25.56"/>
        <path class="st10" d="M353.53,392.41s-12.91-36.92-34.3-19.1c-3.68,3.07-6.54,6.99-8.62,11.3-3.85,7.99-8.98,22.56.5,29.41,0,0,19.67,14.5,33.33-25.56"/>
        <path class="st10" d="M358.63,401.89"/>
        <path class="st10" d="M358.9,401.11c-13.66,40.06-33.33,25.56-33.33,25.56-9.43-6.81-4.41-21.25-.56-29.27,2.09-4.36,4.96-8.33,8.67-11.43,18.05-15.04,30.28,8.67,33.67,16.46.64,1.47.93,3.06.88,4.65l-.14,4.09"/>
      </g>
      <path class="st14" d="M7.63,430.37c.13,8.74,2.53,17.75,8.34,24.29,1.5,1.69,3.28,3.24,5.43,3.93,1.83.59,3.81.53,5.73.45.37-.01.76-.03,1.1-.18,1.04-.46,1.2-1.84,1.2-2.98,0-7.77-.34-15.54-1.02-23.29-.13-1.49-.28-3-.75-4.43-.88-2.68-2.8-4.87-4.57-7.07-2.57-3.2-4.9-6.59-6.97-10.14-1-1.72-1.94-3.48-2.81-5.26-.56-1.15-.99-2.93-1.94-3.74-.6,1.13-.42,2.72-.55,3.99-.23,2.44-.88,4.81-1.35,7.2-1.11,5.66-1.93,11.41-1.85,17.2Z"/>
      <path class="st13" d="M126.3,301.51c-.87,3-1.75,6.2-.9,9.21.58,2.08,1.94,3.86,3.43,5.44,3.07,3.26,6.8,5.89,10.91,7.68-1.48,11.1-5.19,21.91-10.83,31.58-.43-2.07-.86-4.14-1.29-6.2-3.9,5.02-7.91,10.06-12.93,13.96-5.02,3.91-11.21,6.64-17.57,6.38-8.3-.35-16.09-6.27-18.64-14.18-3.47,1.87-7.2,3.25-11.04,4.1.27,2.04,1.97,3.54,3.38,5.04,7.23,7.69,8.65,19.01,9.71,29.51,10.1-2.54,21.31-4.95,30.48-.02,5.17-9.35,9.65-19.09,13.39-29.1,8.08,4.15,17.02,6.61,26.09,7.18.48,2.91-1.7,6.47.41,8.53.94.91,2.37,1.04,3.68,1.11,9.04.45,18.1.35,27.13-.31,1.61-.12,3.82-1.22,3.07-2.65-7.05.33-14.08-.92-21.03-2.17-2.12-.38-4.41-.85-5.85-2.45s-1.28-4.72.76-5.4c-7.33-1.11-14.52-3.16-21.33-6.07-1.08-.46-2.28-1.12-2.48-2.27-.2-1.21.82-2.23,1.72-3.06,9.3-8.52,15.75-20.1,18.08-32.49.17-.91.31-1.88-.05-2.73-.38-.88-1.24-1.45-2.05-1.96-4.4-2.8-8.8-5.61-13.2-8.41-2.44-1.55-4.91-3.14-6.8-5.32s-3.16-5.08-2.73-7.94c-2.74,3.31-7.04,5.27-11.34,5.18"/>
      <path class="st14" d="M172.22,325.75c-4.89,1.72-10.56,1.04-14.9-1.79-1.34,1.81-2.28,3.75-3.28,5.76,3.53,1.93,7.37,3.4,11.38,3.74,4.01.34,8.2-.54,11.44-2.92,3.24-2.39,5.37-6.39,5.03-10.39-.04-.47-3.86,2.27-4.17,2.54-1.56,1.39-3.52,2.36-5.5,3.06Z"/>
      <path class="st14" d="M156.85,371.56c.12,4.52,8.24,5.92,11.4,4.54,1.29-.56,2.32-1.57,3.26-2.62,1.8-2,3.42-4.03,4.24-6.57.99-3.09,2.38-6.1,3.5-9.15,2.28-6.23,3.77-12.41,5.7-18.76,1.59,7.91,3.5,15.7,6.24,23.28,1.55,4.29,4.07,8.43,7.99,10.75,2.94,1.74,6.43,2.31,9.85,2.36.64.01,1.32,0,1.88-.32,1.24-.69.83-2.97.79-4.15-.02-.45-.05-.92-.28-1.3-.25-.41-.68-.67-1.1-.9-1.79-1-3.62-2.01-5.02-3.51-1.67-1.81-2.56-4.18-3.61-6.4-1.65-3.47-3.78-6.69-5.71-10.02-3.41-5.88-6.2-12.11-8.31-18.57-.65-2-1.33-4.16-3-5.45-1.4,3.85-2.79,7.7-4.54,11.4-1.4,2.97-3.01,5.82-4.46,8.76-2.09,4.22-3.86,8.59-5.4,13.04-.96,2.76-1.99,5.77-4.44,7.37-1.62,1.06-3.63,1.33-5.44,2.05s-3.59,2.22-3.54,4.16Z"/>
      <path class="st14" d="M198.32,93.49c.57-1.04,1.14-2.07,1.73-3.09,6.52-3.86,14.52-5.26,22.13-4.53,9.84.94,19.12,5.06,27.62,10.11,12.73,7.55,24.47,17.72,30.66,31.16,3.45,7.5,5.25,16.05,10.91,22.06,1.15,1.22,2.46,2.33,3.36,3.74.93,1.47,1.38,3.18,1.8,4.87,1.24,5.02,1.78,9.31,1.39,14.3-.43,5.54.71,10.86,4.07,15.42,1.39,1.88,3.11,3.62,3.77,5.86.37,1.25.37,2.58.37,3.89,0,5.69-.27,11.41-.27,17.07,0,6.43-3.07,13.91-4.96,20.06-1.18,3.84-3.69,8.02-5.74,11.48-6.29,10.64-10.73,18.68-20.06,26.79-7.18,6.24-15.98,12.73-25.03,15.92,26.55-18.75,38.28-48.97,42.34-80.13.47-3.61.85-7.26.45-10.88-.78-6.92-4.42-13.39-4.48-20.35-.03-3.7.74-8.04-1.96-10.57-4.8-4.5-3.82-5.92-4.93-11.78-.99-5.21-4.36-10.84-6.49-15.69-4.53-10.3-9.98-20.12-18.31-27.85-11.47-10.64-26.55-17.5-42.17-18.39-5.29-.3-10.92.3-15.93,2.09l5.08-4c-1.67,1.04-3.47,1.85-5.34,2.46Z"/>
      <path class="st14" d="M172.69,93.49c-.57-1.04-1.14-2.07-1.73-3.09-6.52-3.86-14.52-5.26-22.13-4.53-9.84.94-19.12,5.06-27.62,10.11-12.73,7.55-24.47,17.72-30.66,31.16-3.45,7.5-5.25,16.05-10.91,22.06-1.15,1.22-2.46,2.33-3.36,3.74-.93,1.47-1.38,3.18-1.8,4.87-1.24,5.02-1.78,9.31-1.39,14.3.43,5.54-.71,10.86-4.07,15.42-1.39,1.88-3.11,3.62-3.77,5.86-.37,1.25-.37,2.58-.37,3.89,0,5.69.27,11.41.27,17.07,0,6.43,3.07,13.91,4.96,20.06,1.18,3.84,3.69,8.02,5.74,11.48,6.29,10.64,10.73,18.68,20.06,26.79,7.18,6.24,15.98,12.73,25.03,15.92-26.55-18.75-38.28-48.97-42.34-80.13-.47-3.61-.85-7.26-.45-10.88.78-6.92,4.42-13.39,4.48-20.35.03-3.7-.74-8.04,1.96-10.57,4.8-4.5,3.82-5.92,4.93-11.78.99-5.21,4.36-10.84,6.49-15.69,4.53-10.3,9.98-20.12,18.31-27.85,11.47-10.64,26.55-17.5,42.17-18.39,5.29-.3,10.92.3,15.93,2.09l-5.08-4c1.67,1.04,3.47,1.85,5.34,2.46Z"/>
      <path class="st12" d="M62.13,134.8c-1.83-.25-3.49,1.18-4.41,2.79-2.27,3.98-2.49,9.02-1.5,13.43.38,1.71,1.16,3.57,2.81,4.16-2.06-.21-4.02-1.32-5.26-2.98-2.1-2.81-1.75-7.12-1.16-10.39.75-4.16,2.36-8.37,4.81-11.83.94-1.33,2.04-2.56,3.4-3.45,2.5-1.66,5.63-2.05,8.63-1.98,5.1.12,9.31,6.18,9.29,10.97,0,2.82-1.1,5.52-2.29,8.08-.82,1.75-1.99,3.7-3.91,3.92.07-1.74-.09-3.69-1.36-4.89-2.01-1.88-5.43-.81-7.31-2.83,2.36-.59.05-4.76-1.74-5Z"/>
      <path class="st12" d="M12.05,159.65c-1.76,1.92-3.04,5.08-5.48,5.98"/>
      <path class="st12" d="M184.73,52.08S121.14-29.01,52.5,115.34c0,0,57.54-109.02,132.23-63.26Z"/>
      <path class="st14" d="M185.37,103.48c.1.06.2.11.27.18.05.05.08.12.12.19l11.19-8.81c-4.69,1.68-8.82,4.41-11.58,8.44Z"/>
      <path class="st12" d="M326.05,177.55c1.36,4.02-.5,8.28-2.48,12.11,2.75-.66,4.86-2.67,5.87-4.95s1.05-4.79.69-7.21c-.38-2.63-1.24-5.26-3.01-7.43-2.69-3.29-7.26-5.21-11.92-5.8-4.28-.54-9.28.23-11.67,3.31-1.35,1.74-1.64,3.92-1.64,6.01,0,2.43.4,5.01,2.16,6.93,2.29,2.49,6.8,3.26,10.02,1.7,1.97-.95,3.38-2.74,3.78-4.64.36-1.74-1.19-3.34-.91-4.89.37-2.07,3.45-1.05,4.84-.23,2.04,1.2,3.58,3.07,4.26,5.1Z"/>
      <path class="st12" d="M308.15,134.8c1.83-.25,3.49,1.18,4.41,2.79,2.27,3.98,2.49,9.02,1.5,13.43-.38,1.71-1.16,3.57-2.81,4.16,2.06-.21,4.02-1.32,5.26-2.98,2.1-2.81,1.75-7.12,1.16-10.39-.75-4.16-2.36-8.37-4.81-11.83-.94-1.33-2.04-2.56-3.4-3.45-2.5-1.66-5.63-2.05-8.63-1.98-5.1.12-9.31,6.18-9.29,10.97,0,2.82,1.1,5.52,2.29,8.08.82,1.75,1.99,3.7,3.91,3.92-.07-1.74.09-3.69,1.36-4.89,2.01-1.88,5.43-.81,7.31-2.83-2.36-.59-.05-4.76,1.74-5Z"/>
      <path class="st12" d="M360.47,161.02c-.17-.15-.26-.33-.31-.51-.68-.46-1.34-.95-1.93-1.5-.31-.29-.62-.6-1.06-.71-.43-.11-.9,0-1.33.1-10.67,2.49-21.93,2.05-32.95,2.83-1.35.09-2.74.22-3.91.81,4.09,2.66,7.37,6.34,8.77,10.57,1.41,4.23.82,8.99-2.03,12.66,5.76-4.29,11.59-9.13,13.46-15.46.12-.41.24-.85.61-1.12.33-.24.78-.31,1.21-.37,6.47-.89,12.78-2.58,18.68-5.01l2.78-.34c-.64-.67-1.3-1.32-2.01-1.94Z"/>
      <path class="st12" d="M46.06,177.55c-1.36,4.02.5,8.28,2.48,12.11-2.75-.66-4.86-2.67-5.87-4.95-1.01-2.28-1.05-4.79-.69-7.21.38-2.63,1.24-5.26,3.01-7.43,2.69-3.29,7.26-5.21,11.92-5.8,4.28-.54,9.28.23,11.67,3.31,1.35,1.74,1.64,3.92,1.64,6.01,0,2.43-.4,5.01-2.16,6.93-2.29,2.49-6.8,3.26-10.02,1.7-1.97-.95-3.38-2.74-3.78-4.64-.36-1.74,1.19-3.34.91-4.89-.37-2.07-3.45-1.05-4.84-.23-2.04,1.2-3.58,3.07-4.26,5.1Z"/>
      <path class="st12" d="M11.65,161.02c.17-.15.26-.33.31-.51.68-.46,1.34-.95,1.93-1.5.31-.29.62-.6,1.06-.71.43-.11.9,0,1.33.1,10.67,2.49,21.93,2.05,32.95,2.83,1.35.09,2.74.22,3.91.81-4.09,2.66-7.37,6.34-8.77,10.57-1.41,4.23-.82,8.99,2.03,12.66-5.76-4.29-11.59-9.13-13.46-15.46-.12-.41-.24-.85-.61-1.12-.33-.24-.78-.31-1.21-.37-6.47-.89-12.78-2.58-18.68-5.01l-2.78-.34c.64-.67,1.3-1.32,2.01-1.94Z"/>
      <path class="st12" d="M359.52,159.65c1.76,1.92,3.04,5.08,5.48,5.98"/>
      <path class="st12" d="M186.84,52.08s63.59-81.09,132.23,63.26c0,0-57.54-109.02-132.23-63.26Z"/>
    </g>
  </g>
  <g id="text">
    <g>
      <path class="st15" d="M120.82,526.84c-.43-.2-.9-.46-1.36-.82-2.5-1.91-3.77-2.84-6.34-4.62-2.28-1.62-3.43-2.4-5.76-3.89-1.4-.92-2.1-1.37-3.52-2.25-.47-.27-.71-.4-1.19-.67-1.34-.87-2.29-1.96-2.82-3.3-.57-1.44-.5-2.85.23-4.25.42-.77.79-1.34,1.11-1.7,2.35-2.81,3.55-4.27,6.04-7.22.39-.39,1.72-1.93,4.09-4.69.74-.8,1.11-1.2,1.85-2,.59-.69,1.28-1.14,2.07-1.34,1.18-.3,2.31-.09,3.38.63,1.07.72,1.77,1.79,2.12,3.19.48,1.92.07,3.57-1.18,4.92-3.74,4.12-5.53,6.14-8.97,10-.29.37-.44.55-.73.92,1.81,1.25,3.57,2.44,5.28,3.56,1.77,1.18,2.65,1.79,4.38,3.03.94.68,1.41,1.03,2.34,1.73.73.5,1.33,1.1,1.81,1.78.48.68.85,1.54,1.12,2.57.36,1.37.23,2.6-.41,3.58-.47.71-1.13,1.09-1.89,1.14-.6.04-1.15-.08-1.65-.31Z"/>
      <path class="st15" d="M145.14,535.62c-.55-.42-1.06-.97-1.48-1.65-.42-.68-.7-1.42-.85-2.2-.15-.78-.16-1.54-.04-2.27.63-3.74,1.34-7.22,2-10.28.67-3.11,1.69-7.88,3.36-14.31.32-1.41.74-2.89,1.26-4.45-.05-.15-.07-.23-.12-.38-1.23-2.21-1.86-3.31-3.13-5.47-2.18-3.67-3.51-5.73-3.9-6.32-1.12-1.71-2.17-3.1-3.02-4.17-1.18-1.48-2.09-3.13-2.58-4.71-.43-1.4-.33-2.81.25-4.11.58-1.3,1.5-2.07,2.75-2.29.89-.16,1.74.02,2.57.55.82.52,1.43,1.4,1.87,2.5.28.71.59,1.22.84,1.5,2.24,2.93,4.35,6.23,6.33,9.88.5.89.74,1.34,1.23,2.24.16-.41.24-.62.41-1.03,1.72-5.64,3.82-11.25,6.36-16.71.72-1.49,1.51-2.49,2.38-3.02.46-.23.93-.37,1.41-.41.58-.05,1.19.06,1.82.34.63.27,1.14.69,1.55,1.24.63.86.97,1.85,1.04,2.95.06,1.04-.15,2.06-.6,3.08-1.43,3.04-2.21,4.82-2.43,5.3-2.29,5.83-3.37,8.79-5.39,14.66-.11.41-.25.87-.42,1.38-.17.51-.35,1.04-.54,1.59-.12.28-.16.58-.13.91.02.2.12.46.29.78,2.8,6.17,4.14,9.32,6.69,15.58.86,2.04,2.1,5.09,3.64,9.15.36.9.55,1.35.9,2.25.35.85.54,1.69.59,2.54.1,1.69-.26,3.02-1.07,3.98-.5.58-1.07.87-1.73.87-.99,0-1.85-.54-2.6-1.62-.37-.51-.74-1.21-1.11-2.11-1.23-3.07-2.01-4.94-2.28-5.59-2.46-5.71-3.75-8.6-6.45-14.29-.13-.19-.2-.28-.33-.47-.32,1.25-.48,1.87-.8,3.1-1.78,7.34-2.58,10.94-3.99,17.8-.19.86-.29,1.28-.48,2.13-.43,1.47-1.21,2.19-2.35,2.19-.61,0-1.18-.23-1.71-.63Z"/>
      <path class="st15" d="M205.3,533.88c-.83,0-1.5-.4-2.03-1.21-.53-.8-.81-1.85-.83-3.15-.01-.9,0-1.62.05-2.14.71-10.24,1.38-20.49,2.03-30.74.08-1,.14-2.44.19-4.31.04-.88.06-1.32.1-2.2-.1,0-.17-.04-.21-.11-.1.15-.15.23-.25.38-1.97,3.75-2.92,5.66-4.78,9.5-1.31,2.91-2.52,5.53-3.65,7.86-.31.73-.64,1.37-.98,1.9-.93,1.46-2.07,2.18-3.42,2.16-1.13-.02-2.08-.65-2.88-1.76-.59-.81-1.18-1.84-1.66-3.06-1.52-4.2-2.31-6.31-3.95-10.5-.14-.41-.36-.78-.65-1.12,0,.57,0,.85,0,1.42.04,3.7.06,5.56.1,9.26.12,8.14.18,14.29.19,18.47,0,1.46-.05,2.96-.18,4.47-.12,1.38-.49,2.51-1.11,3.39s-1.35,1.32-2.22,1.32c-.91,0-1.69-.5-2.37-1.51-.67-1.01-1.04-2.23-1.09-3.68-.02-1.38-.03-2.07-.05-3.46.02-.8,0-1.92-.04-3.39-.46-11.59-.92-23.18-1.39-34.77-.08-2.33-.11-3.5-.19-5.81-.08-2.53-.2-4.42-.26-5.65-.12-2.18.44-4.01,1.56-5.25.85-.94,1.86-1.42,2.97-1.44,1.53-.03,2.73.77,3.58,2.39.32.59,1.12,2.39,2.42,5.32,1.13,2.56,2.21,5.19,3.13,7.81,1.65,4.44,2.44,6.69,3.95,11.2.21.57.32.86.53,1.43.21-.44.32-.66.54-1.1,2.04-5.08,5.41-12.08,10.54-20.38.59-1.06,1.2-1.96,1.84-2.68,1.16-1.46,2.46-2.1,3.88-1.96.84.09,1.61.47,2.31,1.16.7.69,1.24,1.64,1.57,2.83.35,1.25.54,3.28.54,6-.02,6.4-.52,13.59-1.24,21.28-.54,5.72-2.03,15.06-2.55,25.74-.03.67-.16,1.46-.37,2.2-.34,1.15-.8,2.15-1.47,2.84-.68.69-1.4,1.04-2.19,1.03Z"/>
      <path class="st15" d="M217.16,532.94c-1.29-.02-2.13-.73-2.56-2.18-.25-.88-.33-1.7-.23-2.46.11-.82.4-1.67.86-2.54.15-.5.25-.88.28-1.13.02-.15.03-.23.05-.38.15-1.08.31-2.65.51-4.69.32-3.18.63-5.6.83-7.15.55-4.3,1.38-10.88,2.54-19.52.87-6.51,1.58-11.36,2.04-14.53.15-1,.29-1.72.45-2.14.34-.97.91-1.72,1.71-2.26.8-.54,1.64-.72,2.52-.57.94.16,1.7.65,2.29,1.45.59.8.94,1.81.91,2.9-.02.96-.14,1.74-.22,2.24-1.44,8.19-2.16,12.42-3.59,20.86-.19,1.14-.28,1.71-.46,2.85-.89,5.46-1.77,11.61-2.66,18.29-.04.56-.06.85-.11,1.41.31-.05.7-.09,1.17-.13.46-.04.98-.04,1.54-.01.26.01.7,0,1.32-.07.62-.06,1.17-.03,1.63.05.79.13,1.39.64,1.74,1.57.35.93.4,1.96.16,3.09-.24,1.13-.71,2.11-1.42,2.95-.7.84-1.51,1.33-2.39,1.42-2.33.23-4.21.27-5.32.36-1.55.13-2.82.33-3.61.32Z"/>
      <path class="st15" d="M245.49,529.54c-.8-.31-1.34-.88-1.62-1.7-.28-.83-.24-1.88.12-3.17.43-1.51,1.29-2.63,2.5-3.37,1.69-1.04,3.93-2.87,6.73-5.24,1.16-.92,1.74-1.37,2.92-2.25.17-.17.26-.26.43-.44-.23-.24-.35-.37-.58-.61-2.11-2.3-3.72-4.16-4.77-5.39-1.38-1.62-2.82-3.97-4.24-7.12-.61-1.28-.75-2.62-.4-4.02.37-1.45,1.06-2.54,2.09-3.24,1.03-.7,2.09-.92,3.16-.65.73.18,1.37.58,1.92,1.2.37.33.64.76.8,1.28,1.12,2.55,2.86,5.19,5.16,7.88,1.57,1.7,2.34,2.53,3.85,4.17,1.08,1.32,1.69,2.13,1.87,2.44.91,1.53,1.02,3.12.36,4.81-.25.65-.72,1.45-1.4,2.3-.82,1.01-1.87,1.96-3,2.86-2.55,1.96-5.62,4.3-9.12,7.12-.85.68-2.14,1.55-3.87,2.64-.7.44-1.41.65-2.12.62-.38-.02-.65-.06-.8-.12Z"/>
    </g>
  </g>
</svg>