<svg
width="18"
viewBox="0 0 20 19"
fill="none"
xmlns="http://www.w3.org/2000/svg"
>
<g clip-path="url(#clip0_1_40135)">
  <path
	d="M14.9383 4.52634V4.5984C14.9383 5.72439 14.0219 6.64081 12.8959 6.64081C11.7699 6.64081 10.8535 5.72439 10.8535 4.5984V4.52634H8.33524V4.5984C8.33524 5.72439 7.41882 6.64081 6.29282 6.64081C5.16682 6.64081 4.2504 5.72439 4.2504 4.5984V4.52634H0V18.37H19.2102V4.52634H14.9388H14.9383Z"
	fill="#403C6D"
  />
  <path
	d="M13.3805 2.72705C12.9459 1.84254 12.2094 1.13239 11.3061 0.730842C10.7858 0.499812 10.2104 0.369995 9.60477 0.369995C8.99914 0.369995 8.42432 0.499812 7.9034 0.730842C6.44406 1.37938 5.42038 2.83377 5.40112 4.52634C5.40112 4.54229 5.40002 4.55824 5.40002 4.57419C5.40002 5.06486 5.79773 5.46256 6.28839 5.46256C6.77905 5.46256 7.17676 5.06486 7.17676 4.57419C7.17676 4.55824 7.17786 4.54229 7.17786 4.52634C7.19436 3.67318 7.65312 2.92618 8.33466 2.50647C8.70431 2.27874 9.13941 2.14673 9.60477 2.14673C10.0701 2.14673 10.4882 2.27324 10.8534 2.49327C11.4624 2.86017 11.898 3.48615 12.0058 4.21775C12.0207 4.31841 12.0289 4.42182 12.0311 4.52634C12.0311 4.54229 12.0322 4.55824 12.0322 4.57419C12.0322 5.06486 12.4299 5.46256 12.9206 5.46256C13.3425 5.46256 13.6946 5.16827 13.7853 4.77442V4.13084C13.7325 3.63137 13.5922 3.15831 13.3799 2.7265L13.3805 2.72705Z"
	fill="#403C6D"
  />
</g>
<defs>
  <clipPath id="clip0_1_40135">
	<rect
	  width="19.2102"
	  height="18"
	  fill="white"
	  transform="translate(0 0.369995)"
	/>
  </clipPath>
</defs>
</svg>
