<svg
  width="17"
  viewBox="0 0 18 19"
  fill="none"
  xmlns="http://www.w3.org/2000/svg"
>
  <g clip-path="url(#clip0_1_40119)">
    <path
      d="M10.3634 5.12148C11.0885 4.66685 11.5714 3.86097 11.5714 2.94142C11.5714 1.52148 10.42 0.369995 9.00002 0.369995C7.58008 0.369995 6.42859 1.52148 6.42859 2.94142C6.42859 3.86045 6.91099 4.66685 7.63665 5.12148C6.1807 5.67228 5.14545 7.07834 5.14545 8.72714H12.8551C12.8551 7.07834 11.8198 5.67228 10.3639 5.12148H10.3634Z"
      fill="#403C6D"
    />
    <path
      d="M14.1428 12.5843C14.8531 12.5843 15.4286 12.0088 15.4286 11.2986C15.4286 10.5883 14.8531 10.0129 14.1428 10.0129H3.85713C3.1469 10.0129 2.57141 10.5883 2.57141 11.2986C2.57141 12.0088 3.1469 12.5843 3.85713 12.5843H5.14284V14.5129H12.8546V12.5843H14.1428Z"
      fill="#403C6D"
    />
    <path
      d="M2.57143 15.7986C1.15149 15.7986 0 16.9501 0 18.37H5.14286C5.14286 16.9501 3.99137 15.7986 2.57143 15.7986Z"
      fill="#403C6D"
    />
    <path
      d="M9.00002 15.7986C7.58007 15.7986 6.42859 16.9501 6.42859 18.37H11.5714C11.5714 16.9501 10.42 15.7986 9.00002 15.7986Z"
      fill="#403C6D"
    />
    <path
      d="M15.4285 15.7986C14.0086 15.7986 12.8571 16.9501 12.8571 18.37H18C18 16.9501 16.8485 15.7986 15.4285 15.7986Z"
      fill="#403C6D"
    />
  </g>
  <defs>
    <clipPath id="clip0_1_40119">
      <rect
        width="18"
        height="18"
        fill="white"
        transform="translate(0 0.369995)"
      />
    </clipPath>
  </defs>
</svg>
