<svg
width="17"
viewBox="0 0 18 19"
fill="none"
xmlns="http://www.w3.org/2000/svg"
>
<g clip-path="url(#clip0_1_40143)">
  <path
	d="M5.1433 4.23107C5.66946 4.23107 6.09635 3.80418 6.09635 3.27802V0.369995H4.19025V3.27802C4.19025 3.80418 4.61714 4.23107 5.1433 4.23107Z"
	fill="#403C6D"
  />
  <path
	d="M12.8583 4.23107C13.3844 4.23107 13.8113 3.80418 13.8113 3.27802V0.369995H11.9052V3.27802C11.9052 3.80418 12.3321 4.23107 12.8583 4.23107Z"
	fill="#403C6D"
  />
  <path
	d="M15.0457 2.2972V3.27751C15.0457 4.48361 14.0643 5.46495 12.8582 5.46495C11.6521 5.46495 10.6708 4.48361 10.6708 3.27751V2.2972H7.33074V3.27751C7.33074 4.48361 6.3494 5.46495 5.1433 5.46495C3.93719 5.46495 2.95585 4.48361 2.95585 3.27751V2.2972H0V18.37H11.2139C12.832 18.37 14.1441 17.0585 14.1441 15.4399V14.5028H15.0714C16.6895 14.5028 18.0015 13.1912 18.0015 11.5726V2.2972H15.0457ZM6.43118 17.0862H3.85593V14.511H6.43118V17.0862ZM6.43118 13.2288H3.85593V10.6535H6.43118V13.2288ZM10.2969 17.0862H7.72163V14.511H10.2969V17.0862ZM10.2969 13.2288H7.72163V10.6535H10.2969V13.2288ZM10.2969 9.379H7.72163V6.80375H10.2969V9.379ZM14.1461 13.2288H11.5709V10.6535H14.1461V13.2288ZM14.1461 9.379H11.5709V6.80375H14.1461V9.379Z"
	fill="#403C6D"
  />
</g>
<defs>
  <clipPath id="clip0_1_40143">
	<rect
	  width="18.0015"
	  height="18"
	  fill="white"
	  transform="translate(0 0.369995)"
	/>
  </clipPath>
</defs>
</svg>
