<svg
width="13"
viewBox="0 0 13 19"
fill="none"
xmlns="http://www.w3.org/2000/svg"
>
<g clip-path="url(#clip0_1_40098)">
  <path
	d="M10.0681 5.51285H7.77757V3.22994C7.77757 1.65057 6.49274 0.369995 4.90813 0.369995H0V18.37H12.9375V8.3728C12.9375 6.79291 11.6527 5.51285 10.0681 5.51285ZM2.6197 8.72405H10.3555C10.7131 8.72405 11.0025 9.01257 11.0025 9.36897C11.0025 9.72537 10.7131 10.0139 10.3555 10.0139H2.6197C2.26211 10.0139 1.97264 9.72537 1.97264 9.36897C1.97264 9.01257 2.26211 8.72405 2.6197 8.72405ZM11.0371 14.5252C11.0371 14.8749 10.7528 15.1588 10.4014 15.1588H2.64292C2.29204 15.1588 2.00721 14.8754 2.00721 14.5252V14.5021C2.00721 14.1523 2.29153 13.8685 2.64292 13.8685H10.4019C10.7528 13.8685 11.0376 14.1518 11.0376 14.5021V14.5252H11.0371ZM11.0371 11.9538C11.0371 12.3035 10.7528 12.5874 10.4014 12.5874H2.64292C2.29204 12.5874 2.00721 12.304 2.00721 11.9538V11.9306C2.00721 11.5809 2.29153 11.297 2.64292 11.297H10.4019C10.7528 11.297 11.0376 11.5804 11.0376 11.9306V11.9538H11.0371Z"
	fill="#403C6D"
  />
  <path
	d="M12.9189 0.396738L7.75897 0.369995L12.9189 5.51285V0.396738Z"
	fill="#403C6D"
  />
</g>
<defs>
  <clipPath id="clip0_1_40098">
	<rect
	  width="12.9375"
	  height="18"
	  fill="white"
	  transform="translate(0 0.369995)"
	/>
  </clipPath>
</defs>
</svg>
