<svg
width="18"
viewBox="0 0 18 19"
fill="none"
xmlns="http://www.w3.org/2000/svg"
>
<g clip-path="url(#clip0_1_40152)">
  <path
	d="M18 9.37C18 14.3405 13.9705 18.37 9 18.37H8.9976H0L2.35065 15.4347C0.890506 13.8351 0 11.7068 0 9.37C0 4.40011 4.02831 0.371197 8.9976 0.369995H9C13.9705 0.369995 18 4.39951 18 9.37ZM4.54687 7.85277C3.71705 7.85277 3.04467 8.52516 3.04467 9.35497C3.04467 10.1848 3.71705 10.8572 4.54687 10.8572C5.37669 10.8572 6.04907 10.1848 6.04907 9.35497C6.04907 8.52516 5.37669 7.85277 4.54687 7.85277ZM9.05348 6.53083C8.22366 6.53083 7.55128 7.20322 7.55128 8.03303C7.55128 8.86285 8.22366 9.53524 9.05348 9.53524C9.8833 9.53524 10.5557 8.86285 10.5557 8.03303C10.5557 7.20322 9.8833 6.53083 9.05348 6.53083ZM13.5601 7.85277C12.7303 7.85277 12.0579 8.52516 12.0579 9.35497C12.0579 10.1848 12.7303 10.8572 13.5601 10.8572C14.3899 10.8572 15.0623 10.1848 15.0623 9.35497C15.0623 8.52516 14.3899 7.85277 13.5601 7.85277Z"
	fill="#403C6D"
  />
</g>
<defs>
  <clipPath id="clip0_1_40152">
	<rect
	  width="18"
	  height="18"
	  fill="white"
	  transform="translate(0 0.369995)"
	/>
  </clipPath>
</defs>
</svg>
