<svg width="160" height="41" viewBox="0 0 160 41" fill="none" xmlns="http://www.w3.org/2000/svg">
	<mask id="mask0_1_40072" style="mask-type:luminance" maskUnits="userSpaceOnUse" x="0" y="0" width="160" height="41">
	  <path d="M159.54 0H0V40.37H159.54V0Z" fill="white"/>
	</mask>
	<g mask="url(#mask0_1_40072)">
	  <mask id="mask1_1_40072" style="mask-type:luminance" maskUnits="userSpaceOnUse" x="0" y="0" width="160" height="41">
		<path d="M159.54 0H0V40.37H159.54V0Z" fill="white"/>
	  </mask>
	  <g mask="url(#mask1_1_40072)">
		<path d="M56.66 3.41V14.75C56.66 19.2 53.45 20.66 49.97 20.66C46.49 20.66 43.31 19.2 43.31 14.75V3.41H46.38V13.91C46.38 16.75 47.53 18.13 49.97 18.13C52.41 18.13 53.59 16.75 53.59 13.94V3.41H56.66Z" fill="#403C6D"/>
		<path d="M68.18 20.31L63.13 13.05H61.92V20.31H58.85V3.41H61.92V10.41H63.19L67.89 3.41H71.45L65.74 11.61L71.91 20.31H68.18Z" fill="#403C6D"/>
		<path d="M43.31 40.03V23.13H48.73C52.95 23.13 54.76 25.08 54.76 28.5C54.76 31.92 52.75 34.1 49.02 34.1H46.38V40.04H43.31V40.03ZM46.38 31.56H48.68C50.89 31.56 51.64 30.44 51.64 28.63C51.64 26.68 50.64 25.67 48.66 25.67H46.39V31.55L46.38 31.56Z" fill="#403C6D"/>
		<path d="M66.62 36.61C66.62 37.56 67.05 37.82 67.6 37.82C67.92 37.82 68.17 37.76 68.37 37.68V39.95C67.94 40.15 67.39 40.27 66.71 40.27C65.13 40.27 64.16 39.61 63.84 38.15C63.18 39.82 61.69 40.39 59.94 40.39C57.62 40.39 56.01 39.04 56.01 36.77C56.01 33.91 58.43 31.87 62.83 31.87H63.64V30.95C63.64 29.46 62.81 28.83 61.52 28.83C60.23 28.83 59.42 29.41 59.22 30.87L56.44 30.41C56.64 27.6 59.08 26.48 61.72 26.48C64.56 26.48 66.63 27.66 66.63 30.67V36.64L66.62 36.61ZM63.64 33.69C63.52 33.69 63.41 33.69 63.3 33.69C60.11 33.69 59.02 35 59.02 36.44C59.02 37.42 59.68 38.16 60.91 38.16C62.46 38.16 63.64 36.93 63.64 35.47V33.69Z" fill="#403C6D"/>
		<path d="M88 26.77H84.99V40.03H88V26.77Z" fill="#403C6D"/>
		<path d="M118.49 26.45C120.7 26.45 122.36 27.66 122.36 30.5V40.03H119.35V31.56C119.35 29.98 118.75 29.01 117.31 29.01C115.87 29.01 114.56 29.99 114.56 32.51V40.03H111.58V31.56C111.58 29.98 110.98 29.01 109.51 29.01C108.04 29.01 106.78 29.99 106.78 32.54V40.03H103.77V26.77H106.21L106.58 29.32C107.27 27.28 108.85 26.45 110.68 26.45C112.51 26.45 113.92 27.22 114.27 29.38C114.96 27.29 116.62 26.45 118.49 26.45Z" fill="#403C6D"/>
		<path d="M133.09 35.98L135.7 36.75C135.1 39.45 132.83 40.37 130.28 40.37C126.66 40.37 124.2 37.9 124.2 33.54C124.2 29.18 126.58 26.45 130.4 26.45C133.93 26.45 135.77 28.83 135.77 32.19C135.77 32.88 135.66 33.54 135.54 33.97H127.1C127.21 36.38 128.33 38.02 130.4 38.02C131.72 38.02 132.67 37.5 133.1 35.98M132.84 32.02C132.87 31.85 132.87 31.68 132.87 31.5C132.87 29.98 131.89 28.75 130.26 28.75C128.51 28.75 127.39 29.98 127.19 32.02H132.84Z" fill="#403C6D"/>
		<path d="M140.51 29.32C141.23 27.34 142.75 26.45 144.76 26.45C146.88 26.45 148.75 27.66 148.75 30.58V40.02H145.74V31.58C145.74 30 145.11 29 143.59 29C142.07 29 140.72 29.8 140.72 32.53V40.02H137.71V26.76H140.15L140.52 29.31L140.51 29.32Z" fill="#403C6D"/>
		<path d="M159.54 39.57C158.59 40.12 157.39 40.37 156.04 40.37C153.57 40.37 152.05 39.11 152.05 36.47V29.12H150.13V26.77H152.05V23.13H155.09V26.77H159.02V29.12H155.06V35.84C155.06 37.25 155.66 37.82 156.75 37.82C157.61 37.82 158.24 37.56 158.99 37.05L159.54 39.58V39.57Z" fill="#403C6D"/>
		<path d="M72.63 30.38L72.26 26.76H69.71V40.02H72.72V33.53C72.72 30.89 74.53 29.66 76.28 29.66C76.42 29.66 76.56 29.66 76.69 29.68V26.51C74.32 26.78 73.11 28.34 72.63 30.38Z" fill="#403C6D"/>
		<path d="M82.47 37.65C81.78 37.65 81.29 37.33 81.29 36.5V21.61H78.28V37.21C78.28 39.36 79.77 40.25 81.52 40.25C82.09 40.25 82.69 40.15 83.33 39.93V37.51C83.1 37.59 82.8 37.63 82.47 37.63" fill="#403C6D"/>
		<path d="M100.52 36.61C100.52 37.56 100.95 37.82 101.5 37.82C101.82 37.82 102.07 37.76 102.27 37.68V39.95C101.84 40.15 101.29 40.27 100.61 40.27C99.03 40.27 98.06 39.61 97.74 38.15C97.08 39.82 95.59 40.39 93.84 40.39C91.52 40.39 89.91 39.04 89.91 36.77C89.91 33.91 92.33 31.87 96.73 31.87H97.54V30.95C97.54 29.46 96.71 28.83 95.42 28.83C94.13 28.83 93.32 29.41 93.12 30.87L90.34 30.41C90.54 27.6 92.98 26.48 95.62 26.48C98.46 26.48 100.53 27.66 100.53 30.67V36.64L100.52 36.61ZM97.54 33.69C97.42 33.69 97.31 33.69 97.2 33.69C94.01 33.69 92.92 35 92.92 36.44C92.92 37.42 93.58 38.16 94.81 38.16C96.36 38.16 97.54 36.93 97.54 35.47V33.69Z" fill="#403C6D"/>
		<path d="M84.62 23.03C84.62 24.1 85.41 24.92 86.51 24.92C87.61 24.92 88.4 24.1 88.4 23.03C88.4 21.96 87.61 21.14 86.51 21.14C85.41 21.14 84.62 21.96 84.62 23.03Z" fill="#403C6D"/>
		<path d="M31 2.46001L30.59 2.67001C31.06 3.51001 31.18 4.61001 30.89 5.72001C30.41 5.36001 30.07 4.82001 29.91 4.20001L29.5 4.41001C29.34 5.02001 29.13 5.63001 28.86 6.22001C28.6 6.81001 28.29 7.37001 27.95 7.89001L28.06 8.34001C28.47 8.13001 28.93 8.01001 29.42 8.01001C29.59 8.01001 29.75 8.02001 29.91 8.05001C29.49 9.04001 28.52 9.73001 27.38 9.73001C26.31 9.73001 25.38 9.12001 24.93 8.23001C25.25 8.08001 25.5 7.79001 25.59 7.41001C25.7 6.89001 25.37 6.64001 25.49 6.12001C25.6 5.60001 26.12 5.27001 26.64 5.38001C27.05 5.47001 27.33 5.80001 27.39 6.19001C27.67 6.02001 27.88 5.74001 27.96 5.40001C28.11 4.73001 27.68 4.07001 27.02 3.93001C26.6 3.84001 26.17 3.97001 25.89 4.26001C26.06 4.00001 26.19 3.70001 26.26 3.38001C26.43 2.59001 26.23 1.79001 25.75 1.18001C25.06 1.54001 24.54 2.17001 24.37 2.97001C24.3 3.29001 24.29 3.62001 24.34 3.93001C24.2 3.55001 23.87 3.25001 23.45 3.16001C22.78 3.01001 22.12 3.44001 21.98 4.10001C21.9 4.44001 21.98 4.79001 22.16 5.06001C22.37 4.73001 22.77 4.55001 23.18 4.64001C23.7 4.75001 24.03 5.27001 23.92 5.79001C23.81 6.31001 23.4 6.40001 23.29 6.92001C23.22 7.23001 23.29 7.53001 23.43 7.79001C23.43 7.79001 23.46 7.83001 23.49 7.89001C22.95 8.31001 22.27 8.56001 21.53 8.56001C19.76 8.56001 18.33 7.13001 18.33 5.36001V5.10001C19.34 5.26001 20.23 5.77001 20.89 6.49001L21.23 6.15001V2.32001L20.88 1.97001C20.23 2.69001 19.34 3.20001 18.33 3.36001C18.33 1.97001 19.28 0.800011 20.56 0.460011L20.21 0.11001C19.26 0.0400101 18.31 0.0100098 17.34 0.0100098C16.37 0.0100098 15.42 0.0500101 14.47 0.11001L14.12 0.460011C15.41 0.790011 16.35 1.96001 16.35 3.35001C15.34 3.19001 14.45 2.69001 13.8 1.97001L13.45 2.32001V6.15001L13.79 6.49001C14.44 5.76001 15.34 5.26001 16.35 5.10001V5.36001C16.35 7.13001 14.92 8.56001 13.15 8.56001C12.42 8.56001 11.74 8.31001 11.2 7.90001C11.23 7.83001 11.25 7.79001 11.25 7.79001C11.4 7.54001 11.46 7.23001 11.39 6.92001C11.28 6.40001 10.87 6.31001 10.76 5.79001C10.65 5.27001 10.98 4.75001 11.5 4.64001C11.91 4.55001 12.31 4.73001 12.52 5.06001C12.7 4.79001 12.78 4.45001 12.7 4.10001C12.55 3.43001 11.89 3.01001 11.23 3.16001C10.81 3.25001 10.48 3.55001 10.34 3.93001C10.39 3.62001 10.38 3.30001 10.31 2.97001C10.14 2.18001 9.61 1.54001 8.93 1.18001C8.46 1.80001 8.25 2.59001 8.42 3.38001C8.49 3.70001 8.62 4.00001 8.79 4.26001C8.5 3.98001 8.08 3.84001 7.66 3.93001C6.99 4.08001 6.57 4.74001 6.72 5.40001C6.8 5.74001 7.01 6.02001 7.29 6.19001C7.35 5.80001 7.63 5.47001 8.04 5.38001C8.56 5.27001 9.08 5.60001 9.19 6.12001C9.3 6.64001 8.97 6.89001 9.09 7.41001C9.17 7.78001 9.42 8.08001 9.75 8.23001C9.3 9.12001 8.37 9.73001 7.3 9.73001C6.16 9.73001 5.18 9.04001 4.77 8.05001C4.93 8.02001 5.09 8.01001 5.26 8.01001C5.75 8.01001 6.21 8.13001 6.62 8.34001L6.73 7.90001C6.39 7.36001 6.08 6.81001 5.82 6.21001C5.56 5.62001 5.34 5.01001 5.18 4.40001L4.77 4.19001C4.61 4.82001 4.27 5.36001 3.79 5.71001C3.5 4.60001 3.62 3.49001 4.09 2.66001L3.68 2.45001C2.97 2.69001 2 3.08001 1.31 3.40001L5.41 12.61C9.06 10.98 13.1 10.08 17.35 10.08C21.6 10.08 25.64 10.98 29.29 12.61L33.39 3.40001C32.69 3.09001 31.73 2.70001 31.02 2.45001" fill="#403C6D"/>
		<path d="M34.67 19.72C34.67 18.57 33.95 17.65 32.88 17.4V16.07C33.95 15.82 34.67 14.9 34.67 13.75C34.67 12.4 33.67 11.36 32.28 11.36C31.1 11.36 30.2 12.1 29.96 13.15H4.72001C4.47001 12.1 3.58001 11.36 2.40001 11.36C1.00001 11.36 0.0100098 12.4 0.0100098 13.75C0.0100098 14.9 0.73001 15.82 1.80001 16.07V17.4C0.73001 17.65 0.0100098 18.57 0.0100098 19.72C0.0100098 20.87 0.73001 21.79 1.80001 22.04V23.37C0.73001 23.62 0.0100098 24.54 0.0100098 25.69C0.0100098 26.84 0.73001 27.76 1.80001 28.01V29.34C0.73001 29.59 0.0100098 30.51 0.0100098 31.66C0.0100098 32.81 0.73001 33.73 1.80001 33.98V35.31C0.73001 35.56 0.0100098 36.48 0.0100098 37.63C0.0100098 38.98 1.00001 40.02 2.40001 40.02C3.80001 40.02 4.79001 38.98 4.79001 37.63C4.79001 36.48 4.07001 35.56 3.00001 35.31V33.98C4.07001 33.73 4.79001 32.81 4.79001 31.66C4.79001 30.51 4.07001 29.59 3.00001 29.34V28.01C4.07001 27.76 4.79001 26.84 4.79001 25.69C4.79001 24.54 4.07001 23.62 3.00001 23.37V22.04C4.07001 21.79 4.79001 20.87 4.79001 19.72C4.79001 18.57 4.07001 17.65 3.00001 17.4V16.07C3.88001 15.86 4.52001 15.21 4.72001 14.34H5.98001V40.04H6.25001C6.87001 38.19 7.79001 36.48 8.96001 34.97V34.66H7.76001V31.07H10.75V34.66H10.15V34.99C10.93 36.54 11.5 38.24 11.83 40.04H12.06C12.39 38.23 12.96 36.53 13.74 34.99V34.66H13.14V31.07H16.13V34.66H15.53V34.99C16.31 36.54 16.88 38.24 17.21 40.04H17.44C17.77 38.23 18.34 36.53 19.12 34.99V34.66H18.52V31.07H21.51V34.66H20.91V34.99C21.69 36.54 22.26 38.24 22.59 40.04H22.82C23.15 38.23 23.72 36.53 24.5 34.99V34.66H23.9V31.07H26.89V34.66H25.69V34.97C26.86 36.48 27.79 38.19 28.4 40.04H28.67V14.34H29.93C30.13 15.2 30.77 15.86 31.65 16.07V17.4C30.58 17.65 29.86 18.57 29.86 19.72C29.86 20.87 30.58 21.79 31.65 22.04V23.37C30.58 23.62 29.86 24.54 29.86 25.69C29.86 26.84 30.58 27.76 31.65 28.01V29.34C30.58 29.59 29.86 30.51 29.86 31.66C29.86 32.81 30.58 33.73 31.65 33.98V35.31C30.58 35.56 29.86 36.48 29.86 37.63C29.86 38.98 30.85 40.02 32.25 40.02C33.65 40.02 34.64 38.98 34.64 37.63C34.64 36.48 33.92 35.56 32.85 35.31V33.98C33.92 33.73 34.64 32.81 34.64 31.66C34.64 30.51 33.92 29.59 32.85 29.34V28.01C33.92 27.76 34.64 26.84 34.64 25.69C34.64 24.54 33.92 23.62 32.85 23.37V22.04C33.92 21.79 34.64 20.87 34.64 19.72M3.56001 37.65C3.56001 38.37 3.08001 38.85 2.36001 38.85C1.64001 38.85 1.16001 38.37 1.16001 37.65C1.16001 37.15 1.39001 36.77 1.77001 36.58C1.82001 36.85 2.05001 37.05 2.35001 37.05C2.65001 37.05 2.88001 36.85 2.93001 36.58C3.31001 36.77 3.54001 37.15 3.54001 37.65M3.54001 31.67C3.54001 32.17 3.31001 32.55 2.93001 32.74C2.88001 32.47 2.65001 32.27 2.35001 32.27C2.05001 32.27 1.82001 32.47 1.77001 32.74C1.39001 32.55 1.16001 32.17 1.16001 31.67C1.16001 31.17 1.39001 30.79 1.77001 30.6C1.82001 30.87 2.05001 31.07 2.35001 31.07C2.65001 31.07 2.88001 30.87 2.93001 30.6C3.31001 30.79 3.54001 31.17 3.54001 31.67ZM3.54001 25.69C3.54001 26.19 3.31001 26.57 2.93001 26.76C2.88001 26.49 2.65001 26.29 2.35001 26.29C2.05001 26.29 1.82001 26.49 1.77001 26.76C1.39001 26.57 1.16001 26.19 1.16001 25.69C1.16001 25.19 1.39001 24.81 1.77001 24.62C1.82001 24.89 2.05001 25.09 2.35001 25.09C2.65001 25.09 2.88001 24.89 2.93001 24.62C3.31001 24.81 3.54001 25.19 3.54001 25.69ZM2.93001 14.8C2.88001 14.53 2.65001 14.33 2.35001 14.33C2.05001 14.33 1.82001 14.53 1.77001 14.8C1.39001 14.61 1.16001 14.23 1.16001 13.73C1.16001 13.01 1.64001 12.53 2.36001 12.53C3.08001 12.53 3.56001 13.01 3.56001 13.73C3.56001 14.23 3.33001 14.61 2.95001 14.8M10.73 29.27H7.74001V25.68H10.73V29.27ZM10.73 23.89H7.74001V20.3H10.73V23.89ZM10.73 18.51H7.74001V14.92H10.73V18.51ZM16.11 29.27H13.12V25.68H16.11V29.27ZM16.11 23.89H13.12V20.3H16.11V23.89ZM16.11 18.51H13.12V14.92H16.11V18.51ZM21.49 29.27H18.5V25.68H21.49V29.27ZM21.49 23.89H18.5V20.3H21.49V23.89ZM21.49 18.51H18.5V14.92H21.49V18.51ZM26.87 29.27H23.88V25.68H26.87V29.27ZM26.87 23.89H23.88V20.3H26.87V23.89ZM26.87 18.51H23.88V14.92H26.87V18.51ZM31.05 13.73C31.05 13.01 31.53 12.53 32.25 12.53C32.97 12.53 33.45 13.01 33.45 13.73C33.45 14.23 33.22 14.61 32.84 14.8C32.79 14.53 32.56 14.33 32.26 14.33C31.96 14.33 31.73 14.53 31.68 14.8C31.3 14.61 31.07 14.23 31.07 13.73M33.46 37.64C33.46 38.36 32.98 38.84 32.26 38.84C31.54 38.84 31.06 38.36 31.06 37.64C31.06 37.14 31.29 36.76 31.67 36.57C31.72 36.84 31.95 37.04 32.25 37.04C32.55 37.04 32.78 36.84 32.83 36.57C33.21 36.76 33.44 37.14 33.44 37.64M33.44 31.66C33.44 32.16 33.21 32.54 32.83 32.73C32.78 32.46 32.55 32.26 32.25 32.26C31.95 32.26 31.72 32.46 31.67 32.73C31.29 32.54 31.06 32.16 31.06 31.66C31.06 31.16 31.29 30.78 31.67 30.59C31.72 30.86 31.95 31.06 32.25 31.06C32.55 31.06 32.78 30.86 32.83 30.59C33.21 30.78 33.44 31.16 33.44 31.66ZM33.44 25.68C33.44 26.18 33.21 26.56 32.83 26.75C32.78 26.48 32.55 26.28 32.25 26.28C31.95 26.28 31.72 26.48 31.67 26.75C31.29 26.56 31.06 26.18 31.06 25.68C31.06 25.18 31.29 24.8 31.67 24.61C31.72 24.88 31.95 25.08 32.25 25.08C32.55 25.08 32.78 24.88 32.83 24.61C33.21 24.8 33.44 25.18 33.44 25.68ZM3.55001 19.7C3.55001 20.2 3.32001 20.58 2.94001 20.77C2.89001 20.5 2.66001 20.3 2.36001 20.3C2.06001 20.3 1.83001 20.5 1.78001 20.77C1.40001 20.58 1.17001 20.2 1.17001 19.7C1.17001 19.2 1.40001 18.82 1.78001 18.63C1.83001 18.9 2.06001 19.1 2.36001 19.1C2.66001 19.1 2.89001 18.9 2.94001 18.63C3.32001 18.82 3.55001 19.2 3.55001 19.7ZM33.44 19.7C33.44 20.2 33.21 20.58 32.83 20.77C32.78 20.5 32.55 20.3 32.25 20.3C31.95 20.3 31.72 20.5 31.67 20.77C31.29 20.58 31.06 20.2 31.06 19.7C31.06 19.2 31.29 18.82 31.67 18.63C31.72 18.9 31.95 19.1 32.25 19.1C32.55 19.1 32.78 18.9 32.83 18.63C33.21 18.82 33.44 19.2 33.44 19.7Z" fill="#403C6D"/>
	  </g>
	</g>
  </svg>
